<svg width="90" height="45" fill="none" xmlns="http://www.w3.org/2000/svg"><path fill-rule="evenodd" clip-rule="evenodd" d="M22.51 29.645h-7.155v4.802l.002-.002.016-.018a4.318 4.318 0 016.105 6.105.144.144 0 01-.011.01l-.01.01-.001.002a.158.158 0 01-.009.008l-.005.004a8.595 8.595 0 01-6.087 2.515 8.595 8.595 0 01-6.097-2.525C6.29 37.589 5.939 32.999 8.2 29.646a8.598 8.598 0 017.154-3.807V14.296C6.875 14.297 0 21.172 0 29.645 0 38.125 6.874 45 15.355 45c4.422 0 8.405-1.87 11.207-4.86V29.646H22.51zm67.487 4.762H28.38v10.58h61.617v-10.58zm-12.394 5.966v.593c0 1.441-.654 2.07-2.07 2.07-1.406 0-2.07-.62-2.07-2.079v-2.769c0-1 .62-1.795 2.07-1.795 1.433 0 2.07.813 2.07 1.804v.434h-1.53v-.575c0-.336-.318-.496-.557-.496-.257 0-.522.142-.522.469v3.167c0 .477.203.672.522.672.327 0 .557-.177.557-.655v-.84h1.53zM31.948 38.11v-1.575h-1.46v6.35h1.486l1.318-3.864h.009c-.025.237-.068.52-.113.817-.082.543-.17 1.13-.17 1.57v1.478h1.46v-6.35h-1.46l-1.292 3.988h-.008c.015-.304.06-.668.107-1.04.06-.484.123-.98.123-1.374zm11.975.875h-1v-2.45h-1.53v6.35h1.53v-2.697h1v2.698h1.53v-6.35h-1.53v2.45zm9.924 2.76h.345c.575 0 .743-.221.743-.796 0-.53-.169-.823-.708-.823h-.38v1.619zm0-2.76h.45c.434 0 .602-.212.602-.716 0-.372-.168-.593-.601-.593h-.451v1.31zm-1.477-2.45h2.44c.744 0 1.567.452 1.567 1.592 0 .867-.531 1.274-.867 1.345.593.247.928.654.928 1.539 0 1.185-.636 1.875-1.937 1.875H52.37v-6.35zm14.47 0h-3.556v6.35h3.555v-1.202h-2.025v-1.495h1.813v-1.203h-1.813v-1.247h2.025v-1.203zm18.511 6.35h1.406v-5.147h1.124v-1.203h-3.733v1.203h1.203v5.148zm-61.55-23.031c.24-.992.428-2.65.463-4.221a25.65 25.65 0 00-.89-7.026c-.77-2.786-2.257-5.436-2.479-5.778-.221.342-1.402 2.495-2.444 5.862-.274 1.009-.773 3.2-.855 5.334-.101 2.587.253 5.16.393 5.882 0-.857.016-3.71.547-6.07.53-2.359 1.54-5.078 2.36-6.462.888 1.453 2 4.598 2.393 6.479.393 1.88.598 4.291.512 6zm-4.137 2.719c.069 2.56.787 4.217 1.248 5.089.479-.889 1.3-2.836 1.23-5.312-.102-2.53-.956-4.376-1.213-4.82-.29.444-1.282 2.564-1.265 5.043zM21.088.9c.649 1.012 2.611 4.07 3.449 7.74.94 4.12.922 6.65.513 9.538-.736 5.198-3.096 9.174-4.121 10.508-.7-.907-1.777-2.751-2.495-4.474 0 0-1.351-3.28-1.71-6.479-.36-3.197-.206-6.443.838-10.102.956-3.283 2.838-6.24 3.35-7.009.036.06.096.154.176.278zm13.145 13.397H28.38v15.345h3.069V16.2h2.784v-1.903zm-.084 15.345h3.003l.285-4.078h1.448l.284 4.078h3.004l-1.601-15.345h-4.823l-1.6 15.345zm3.398-5.765l.526-7.678h.176l.525 7.678h-1.227zm8.66 3.283v-2.89h-3.069v2.632c0 1.073.132 2.74 2.28 2.74h2.544c2.15 0 2.28-1.666 2.28-2.74v-3.091c0-.548-.021-2.127-2.082-2.082v-.154c.92.044 2.082-.417 2.082-2.083v-2.455c0-1.074-.13-2.74-2.28-2.74h-2.545c-2.148 0-2.279 1.666-2.279 2.74v2.17h3.07v-2.503c0-.394.306-.504.48-.504a.49.49 0 01.484.504v3.051c0 .943-.308 1.14-1.184 1.14h-1.293v1.689h1.248c1.14 0 1.229.525 1.229 1.007v3.57c0 .263-.197.504-.483.504-.175 0-.482-.11-.482-.505zm5.648-12.863h7.104v15.345h-3.068V16.2h-.966v13.442h-3.07V14.297zm11.967 15.345h-3.07V14.297h4.823c2.149 0 2.28 1.666 2.28 2.74v4.647c0 1.074-.131 2.74-2.28 2.74h-1.753v5.218zm0-13.442v6.537h.395c.329 0 .57-.285.57-.767v-5.004c0-.481-.241-.766-.57-.766h-.395zm5.525 10.702c0 1.073.131 2.74 2.28 2.74h2.543c2.148 0 2.28-1.666 2.28-2.74v-9.865c0-1.074-.132-2.74-2.28-2.74h-2.543c-2.149 0-2.28 1.666-2.28 2.74v9.865zm4.034.258c0 .264-.197.505-.482.505-.176 0-.483-.11-.483-.505V16.704c0-.394.307-.504.483-.504.285 0 .481.241.481.504V27.16zM90 14.297h-3.99l-1.995 10.785-1.995-10.785h-3.99v15.345h3.07v-9.623h.11l1.578 9.623h2.455l1.578-9.623h.11v9.623H90V14.297z" fill="#fff"/></svg>