<svg width="70" height="71" fill="none" xmlns="http://www.w3.org/2000/svg"><path fill-rule="evenodd" clip-rule="evenodd" d="M14.852 43.687c.183.764 1.502 2.973 1.975 3.615 1.045 1.506 2.205 2.873 3.602 4.079l1.999 1.572c1.496 1.078 2.145 1.313 3.63 2.042 2.654 1.306 6.058 1.86 9.157 1.844 3.972-.018 6.111-1.26 8.318-3.066 4.106-3.354 4.26-8.476-.761-9.88-1.548-.434-3.383-.34-5.318-.33l-22.602.124zm11.554 7.307c-1.33.007-2.825.011-4.155.022-1.017.01-.465.027-1.216.007-.675-.538-2.653-2.68-3.173-3.397-.545-.749-1.018-1.566-1.448-2.367l8.435-.047c.221 2.665.8 4.516 1.557 5.782zm.878-.005c-.607-.677-1.64-2.789-1.724-5.78l9.062-.05.032 5.79-7.37.04zm7.97-5.834c3.472-.019 6.703-.578 8.3 2.287.694 1.25.43 2.186.142 3.457l-8.41.046-.032-5.79zm-3.54 10.756c-1.157-.014-4.445-1.058-5.452-1.546-1.35-.661-3.148-1.599-4.321-2.61l4.835-.027c2 2.456 2.513 2.568 4.937 4.183zm3.576-4.23l7.99-.044c-1.49 2.861-4.843 4.555-7.966 4.572l-.024-4.528zm-.608 4.424c-.382-.105-.76-.214-1.142-.32-.346-.117-.637-.207-.999-.368-.67-.295-1.298-.586-1.845-.989-.303-.221-.578-.395-.862-.608-.55-.419-1.851-1.526-2.006-2.098l6.83-.037.024 4.42zM23.142 21.53c.006 1.125.569 2.395 1.356 3.18.795.79 1.775 1.259 3.127 1.49 2.521.432 6.012.222 8.893.206l18.394-.101c-.313-1.327-2.123-3.952-2.983-5.025-3.369-4.208-7.342-6.41-12.39-7.672-2.81-.705-7.096-.729-9.756.364-2.038.835-4.044 2.366-5.357 4.12-.54.723-1.291 2.248-1.284 3.437zm14.268-7.672c3.216.246 9.014 2.724 10.497 4.372l-4.914.035c-1.076-2.008-3.473-3.65-5.583-4.407zm-2.96-.075l.025 4.529-7.986.043c.253-.972 2.076-2.606 3.006-3.2 1.097-.694 3.191-1.362 4.955-1.372zm.632.1c2.54.014 6.184 2.493 7.049 4.394l-7.025.031-.024-4.425zm8.256 5.009c.723-.005 4.318-.044 5.196-.04 1.877 1.7 3.607 3.41 4.753 5.882-2.59.014-5.717.063-8.304.058-.17-2.817-.654-4.227-1.645-5.9zm-17.575 1.783c-.003-.525.154-1.688.623-1.69l8.092-.085.033 5.937c-2.368.013-5.461.329-7.169-.995-.112-.087-.18-.15-.287-.241-.799-.708-1.285-1.768-1.292-2.926zm9.347-1.818l7.366.031c1.456 1.835 1.804 4.507 1.812 5.896l-9.146.05-.032-5.977z" fill="#fff"/><path fill-rule="evenodd" clip-rule="evenodd" d="M15.013 53.475c.157.298-.118.06.5.658l2.224 1.986c1.517 1.229 2.71 2.034 4.419 2.932.462.244.869.548 1.307.797l5.76 2.742c.307.117.45.192.737.31 1.27.526 2.28.783 3.38 1.871.507.507 1.543 1.759 1.614 2.598l.211-.001c.067-.84 1.085-2.103 1.587-2.615.786-.796 1.535-1.143 2.597-1.618l7.15-3.39c1.9-1.168 4.051-2.259 5.711-3.764.66-.596 2.23-1.886 2.64-2.513l-4.135.822c-.504.11-.757.26-1.321.262.224.306.362.233.63.63-.13.59-.524.707-.999.996-1.018.622-2.681 1.527-3.728 1.962-1.2.5-2.945 1.238-4.278 1.52-.508.106-.996.312-1.584.315-2.828.015-2.354-.453-3.369-.718l-.009-1.58-1.994.011.007 1.266c.003.557-1.726 1.06-2.414 1.063-1.895.01-.973.042-2.727-.307-1.5-.298-4.144-1.406-5.554-2.102-.776-.382-3.194-1.467-3.413-2.261.264-.4.407-.329.628-.637-.465-.01-.97-.217-1.463-.318-.47-.093-.872-.206-1.369-.307a49.99 49.99 0 01-1.376-.303c-.442-.1-1.002-.133-1.369-.306zM13.012 34.115l43.73-.24c-.003-.485-.124-1.487-.221-1.892l-30.167.165c-3.595.02-7.6.718-9.912-2.138-1.284-1.589-1.051-3.309-1.06-4.857-1.05 1.224-2.382 6.794-2.37 8.962zM13.244 38.01l30.17-.166c3.965-.021 9.617-1.051 10.877 4.23.26 1.097.089 1.592.095 2.765.012-.024.031-.083.04-.068.088.243 1.686-3.964 2.058-6.338.096-.625.272-1.82.269-2.556l-43.73.24c.003.55.174 1.364.221 1.893z" fill="#fff"/><path fill-rule="evenodd" clip-rule="evenodd" d="M14.107 41.793l20.182-.11c2.853-.016 7.48-.304 9.838.2 2.657.57 4.684 2.76 4.7 5.514.01 2.144-1.329 4.193-2.28 6.013.36-.098 1.5-1.067 1.86-1.407.256-.236.556-.532.782-.792 1.303-1.5 2.582-3.648 2.57-5.729-.008-1.567-.736-3.143-1.515-3.966-.332-.349-1.15-.89-1.631-1.102-.478-.208-1.577-.544-2.145-.585-1.53-.107-8.764.048-10.925.06l-21.97.12c.233.48.277 1.26.534 1.784zM56.196 29.983c-.233-.48-.265-1.228-.535-1.788l-20.29.111c-2.633.015-7.844.274-9.79-.244-2.037-.546-3.413-1.506-4.182-3.392-.842-2.068-.373-3.491.407-5.406.188-.462.463-1.013.688-1.408.173-.3.638-1.05.723-1.38-2.814 1.913-5.538 5.06-5.092 8.865.241 2.072 1.373 3.426 2.99 4.17 1.896.865 3.838.643 6.488.629l28.593-.157zM7.852 32.142c.002.29 2.362 3.939 2.757 4.199-.003-.569-.095-.584-.117-1.058l.228-3.232.79-3.825c-.007-1.269-.757-3.95-.766-5.574-.376.28-.778 1.488-1.01 2.035-.753 1.77-1.891 5.672-1.882 7.455zM13.29 46.326c-.05-.206-.945-2.016-1.264-2.953-.186-.54-.38-1.073-.525-1.585l-.802-3.422-2.046-2.165c-.176-.226-.284-.393-.452-.603-.168-.218-.284-.416-.543-.506.009 1.671.296 4.03.65 5.695l.929 3.294c.21.535.084.234.527.526 1.073.706 1.122.968 2.722 1.477.294.09.585.136.804.242zM59.178 36.914c.367-.428.667-.8 1.002-1.31l.914-1.394c.2-.308.82-1.19.87-1.446.042-.219-.2-1.757-.254-2.119-.173-1.161-1.345-6.129-2.292-7.206l-.74 4.922c-.28 1.944.45 2.378.48 4.865.012.752.137 1.11.12 1.793-.02.633-.105 1.111-.1 1.895zM56.598 46.089c1.156-.007 2.23-.522 2.947-.956.954-.582.972-.78 1.451-2.542.577-2.144 1.026-4.208 1.011-6.954-.387.261-.572.636-.912.98l-1.995 2c-.407.46-.204.615-.429 1.567a28.968 28.968 0 01-.893 3.097l-1.18 2.808zM12.338 25.592c.312-.233.142-.125.314-.523.099-.216.205-.427.307-.639l.944-1.792c1.086-1.916 2.094-2.812 2.74-3.775.268-.4.305-.845.362-1.423.094-.935.22-2.006 0-2.928-.349.236-.712.668-1.1 1l-.77.813c-.114.128-.165.192-.3.332-.758.796-1.334 1.535-1.993 2.418-1.258 1.686-1.23 1.63-1.161 2.724.123 2.093.568 2.822.657 3.793zM57.644 26.08c.318-1.4.587-1.564.815-3.595.148-1.31-.11-1.304-1.228-2.973l-1.397-1.87c-.212-.242-.32-.401-.524-.63l-2.245-2.173c.009 1.48-.006 3.972.89 5.025.6.709 1.481 2.045 1.959 2.89l1.06 1.996c.208.444.395 1.128.67 1.33zM46.328 13.507c-.007-1.201-.679-3.49-1.448-3.828-1.262-.55-4.967-1.612-6.15-1.606.186.775.597 1.644.922 2.347.438.949-.12.602 2.065 1.194.907.25 1.635.529 2.416.835l2.195 1.058zM18.583 53.142c-.268-.397-1.905-1.888-2.597-2.768l-1.502-2.08c-.372-.56-.439-.432-1.12-.663-.856-.294-1.843-.662-2.907-.656.473.888 2.832 5.053 3.553 5.4.387.185 3.953.754 4.573.767zM51.487 52.961c.75-.004 4.002-.452 4.43-.74.566-.39 3.22-4.535 3.418-5.411-.774.024-2.07.528-2.713.767-1.582.597-1.413.947-2.628 2.53-.154.195-.221.255-.387.455-.193.232-.201.291-.422.523-.316.332-.577.569-.881.909l-.15.163c-.34.34-.555.37-.667.804zM23.831 13.209c.135-.033 2.934-1.214 4.37-1.64 1.284-.38 1.231.005 1.741-1.203.184-.439.768-1.839.798-2.249-.953.006-3.933.83-4.829 1.185-.658.262-.897.18-1.45 1.496-.313.75-.636 1.356-.63 2.41zM18.385 17.03c.709-.48 1.641-1.389 2.595-2.039 1.22-.822 1.019-.455 1.23-1.085.485-1.443 1.012-2.409 1.712-3.75-.74.064-4.32 2.216-5.122 2.885-.249.205-.091.029-.197.224-.216.412-.222 3.113-.218 3.766zM51.816 17.373L51.7 14.42c-.062-1.186-.012-.816-1.352-1.807-.687-.51-3.23-2.08-4.037-2.266.905 1.336 1.81 4.124 1.946 4.275l2.685 2.05c.315.261.448.587.874.7zM34.776 5.887l.941 2.142 2.027-.015-1.525 1.059.613 1.974-2.033-1.046-2.022 1.068.596-1.98-1.541-1.042 2.03-.008.914-2.152z" fill="#fff"/><path d="M3.572 50.767l-.281-.659 3.122-3.163-.022-.053-4.445.065-.28-.659 4.557-1.945.22.517-3.462 1.477.019.045 4.07-.053.213.498-2.855 2.902.019.044 3.463-1.477.22.516-4.558 1.945zM2.38 36.997c.517-.07.977-.035 1.38.101.402.137.727.355.975.654.249.298.4.657.457 1.076.056.42.003.805-.158 1.159a2.125 2.125 0 01-.77.886c-.353.238-.788.39-1.306.46s-.978.035-1.38-.101a2.125 2.125 0 01-.976-.654 2.077 2.077 0 01-.456-1.076 2.077 2.077 0 01.157-1.159c.161-.353.418-.649.77-.886.353-.238.788-.391 1.306-.46zm.076.575c-.425.057-.775.176-1.048.358-.274.18-.47.4-.588.662a1.5 1.5 0 00-.118.836c.04.297.15.556.333.778.183.22.43.38.741.484.312.102.68.124 1.105.067.425-.056.775-.175 1.049-.354.273-.182.47-.402.588-.662.118-.262.157-.541.117-.838a1.5 1.5 0 00-.333-.776 1.56 1.56 0 00-.74-.485c-.312-.103-.68-.126-1.106-.07zM4.929 33.116L0 32.6l.174-1.665c.04-.387.143-.695.308-.926.164-.233.37-.396.618-.49a1.74 1.74 0 01.808-.096c.29.03.548.117.773.26.225.142.396.344.511.604.114.26.151.582.111.965l-.124 1.194-.53-.056.123-1.174c.028-.265.004-.482-.07-.652a.823.823 0 00-.335-.388 1.244 1.244 0 00-.52-.166 1.228 1.228 0 00-.541.056.795.795 0 00-.403.313c-.106.152-.174.363-.202.63l-.11 1.05 4.4.459-.062.597zM4.158 21.682l-.196.568a1.247 1.247 0 00-.906.222 1.355 1.355 0 00-.327.325c-.092.128-.165.27-.219.426a1.512 1.512 0 00-.05.845c.064.278.212.533.444.765.233.23.552.416.958.556.405.14.77.19 1.096.153.326-.04.6-.149.822-.328.223-.181.384-.413.481-.697.054-.155.084-.312.091-.47a1.388 1.388 0 00-.055-.457 1.274 1.274 0 00-.578-.734l.195-.568c.225.126.412.277.563.455A1.859 1.859 0 016.919 24a2.227 2.227 0 01-.127.701c-.138.4-.358.721-.66.965a2.126 2.126 0 01-1.086.447c-.422.054-.88-.004-1.374-.174-.494-.17-.89-.407-1.188-.71a2.125 2.125 0 01-.58-1.021 2.076 2.076 0 01.076-1.167c.081-.236.192-.446.332-.63a1.92 1.92 0 01.497-.46c.189-.123.397-.209.625-.256.227-.048.468-.052.724-.012zM10.37 17.682l-2.832.232-.324.516 1.925 1.21-.32.508-4.195-2.637.32-.508 1.819 1.143.139-.22-.763-2.824.381-.606.777 2.855 3.454-.275-.38.606zM12.924 14.574l-.448.442-2.185-4.806.44-.435 4.776 2.25-.448.441-3.983-1.929-.028.027 1.876 4.01zm-1.194-1.541l1.804-1.781.374.378-1.804 1.782-.374-.38zM21.125 8.288l-.512.312-2.304-3.776-.9.55c-.229.139-.391.286-.487.441a.759.759 0 00-.125.479c.014.165.072.332.176.502.103.17.223.296.36.381a.748.748 0 00.473.097c.18-.019.382-.097.607-.235l1.14-.695.283.462-1.157.706c-.327.2-.63.31-.907.33a1.262 1.262 0 01-.746-.169c-.22-.13-.405-.32-.557-.57a1.667 1.667 0 01-.255-.76 1.266 1.266 0 01.19-.748c.144-.242.38-.464.711-.666l1.43-.872 2.58 4.23zm-3.15-.686l.578-.353.134 2.525-.595.363-.117-2.535zM29.202 1.994l-.581.148a1.248 1.248 0 00-.683-.635 1.355 1.355 0 00-.452-.095 1.653 1.653 0 00-.476.051c-.29.074-.535.214-.734.421-.197.207-.329.471-.395.793-.065.32-.044.69.061 1.105.106.416.264.75.474 1 .212.251.454.42.726.507.274.087.556.094.846.02.16-.04.308-.102.443-.183.136-.081.253-.18.352-.297a1.274 1.274 0 00.296-.886l.582-.148a2 2 0 01-.072.72 1.856 1.856 0 01-.807 1.059 2.227 2.227 0 01-.655.279c-.41.104-.8.096-1.17-.022a2.125 2.125 0 01-.97-.663c-.276-.322-.479-.736-.607-1.243-.13-.506-.15-.967-.06-1.383.089-.415.267-.764.535-1.045A2.077 2.077 0 0126.872.92c.242-.062.478-.084.709-.068.232.016.451.07.658.162.206.09.392.218.557.383.164.163.3.362.406.598zM35.623 0l.203 4.951-.6.025-.18-4.42-2.496.102.181 4.42-.6.024-.202-4.95L35.623 0zM38.782 5.227l-.62-.106L40.79.544l.61.104.96 5.191-.62-.106-.758-4.361-.038-.007-2.162 3.862zm.555-1.868l2.5.427-.09.525-2.5-.428.09-.524zM49.663 4.895l-.558-.22a1.248 1.248 0 00-.182-.915 1.356 1.356 0 00-.31-.341 1.65 1.65 0 00-.416-.237c-.28-.11-.56-.14-.842-.088-.28.052-.542.189-.784.41-.24.223-.44.533-.597.933-.158.399-.225.761-.202 1.088.026.327.123.606.292.836.17.23.396.4.675.511.153.06.308.098.466.111.157.014.31.003.458-.034a1.275 1.275 0 00.76-.546l.558.22c-.135.22-.295.4-.48.542a1.858 1.858 0 01-1.274.387 2.228 2.228 0 01-.694-.158 2.077 2.077 0 01-.935-.702 2.125 2.125 0 01-.4-1.105c-.035-.423.044-.878.236-1.364.192-.486.445-.871.76-1.156a2.125 2.125 0 011.047-.534c.382-.07.77-.029 1.162.127.233.091.438.211.615.36.179.148.325.32.438.516.114.194.19.406.228.636.038.229.031.47-.02.723zM50.382 9.243l-.526-.346 4.245-3.138.517.34-1.205 5.14-.525-.347 1.057-4.298-.033-.021-3.53 2.67zm1.258-1.49l2.118 1.395-.293.445-2.118-1.395.293-.444zM58.163 9.543l.374-.38 2.648 2.608-.373.38-1.11-1.094-3.104 3.152-.428-.421 3.104-3.152-1.11-1.093zM58.964 16.966l4.059-2.842 1.715 2.45-.436.305-1.371-1.958-1.372.96 1.283 1.831-.436.306-1.283-1.832-1.38.966 1.394 1.99-.436.306-1.737-2.482zM61.692 21.221l.505-.223.058.133c.084.189.21.309.377.36.167.051.396.04.686-.034.29-.072.662-.199 1.115-.38l2.221-.888 1.222 2.761-4.53 2.006-.244-.549 4.045-1.79-.748-1.69-1.837.728a8.103 8.103 0 01-1.27.406c-.364.079-.673.07-.925-.027-.253-.096-.453-.311-.6-.644l-.075-.169zM66.937 27.195l.302 1.38c.076.346.083.651.022.914a1.25 1.25 0 01-.36.649 1.42 1.42 0 01-.69.346c-.28.062-.541.054-.783-.024a1.299 1.299 0 01-.623-.433c-.173-.211-.298-.49-.374-.837l-.397-1.815 4.84-1.06.128.585-4.33.95.27 1.228c.048.22.133.398.255.531a.943.943 0 00.897.297.811.811 0 00.54-.398c.13-.215.158-.488.085-.82l-.302-1.38.52-.113zM64.962 33.107L69.917 33l.013.6-2.207.048.058 2.641 2.206-.048.013.6-4.954.108-.013-.6 2.216-.048-.058-2.642-2.216.048-.013-.6zM64.646 39.867l.126-.616 4.49 2.776-.124.606-5.22.79.127-.617 4.383-.614.008-.038-3.79-2.287zm1.85.616l-.508 2.484-.522-.107.508-2.484.522.107zM61.752 48.835l.236-.552 4.066 1.742.415-.97c.105-.246.152-.46.14-.643a.759.759 0 00-.175-.462 1.15 1.15 0 00-.434-.307 1.123 1.123 0 00-.515-.102.748.748 0 00-.441.195c-.136.12-.255.3-.36.544l-.525 1.228-.499-.214.534-1.245c.151-.353.334-.618.548-.794.216-.177.451-.275.706-.296.254-.02.516.026.784.141.268.115.484.273.648.472.163.2.257.44.279.72.024.28-.04.599-.193.954l-.66 1.54-4.554-1.951zm2.964-1.268l-.267.623-1.573-1.98.274-.64 1.566 1.997zM18.09 62.855l-.486-.352a1.246 1.246 0 00.049-.931 1.356 1.356 0 00-.217-.407 1.655 1.655 0 00-.344-.333 1.511 1.511 0 00-.794-.293 1.582 1.582 0 00-.862.204c-.288.157-.557.409-.809.756-.25.348-.405.683-.463 1.006a1.58 1.58 0 00.076.882c.109.265.285.486.528.662.133.096.274.17.424.222.15.052.3.079.453.08a1.276 1.276 0 00.87-.341l.487.351a2 2 0 01-.598.407 1.86 1.86 0 01-1.33.06 2.223 2.223 0 01-.635-.325 2.076 2.076 0 01-.732-.91 2.125 2.125 0 01-.114-1.17c.07-.419.258-.84.564-1.264.306-.423.647-.734 1.023-.932a2.126 2.126 0 011.145-.26c.388.026.753.163 1.095.41.203.146.372.313.507.5.137.189.236.392.298.61.062.216.083.44.063.672-.02.23-.085.463-.198.696zM20.117 67.702l.2-.514.136.053c.192.075.366.072.52-.01.155-.081.31-.25.464-.507.155-.256.33-.608.524-1.055l.952-2.195 2.812 1.1-1.804 4.615-.56-.218 1.611-4.12-1.721-.673-.791 1.81a8.109 8.109 0 01-.616 1.184c-.204.312-.429.522-.676.632-.247.11-.54.098-.88-.035l-.171-.067zM29.405 70.481l.07-.557.307.039a.589.589 0 00.53-.187c.065-.067.119-.138.164-.214l.1-.173-1.228-3.977.643.08.972 3.224 1.621-2.899.634.08-2.216 3.906a2.883 2.883 0 01-.284.399.947.947 0 01-.388.273c-.156.062-.358.077-.608.046l-.317-.04zM39.91 65.436l.692 4.906-.594.084-.693-4.907.595-.084zm-2.624 5.374l1.23-2.783-1.788-2.142.719-.102 1.581 1.996 1.792-.253.968-2.356.719-.101-1.134 2.564 1.95 2.325-.68.096-1.639-1.987-2.012.284-1.035 2.365-.67.094zM47.873 68.346l-1.985-4.54 2.74-1.198.213.488-2.19.957.62 1.42 1.153-.505c.325-.142.623-.209.892-.2.271.008.507.084.707.227.201.143.36.346.475.609.115.263.158.52.129.772a1.298 1.298 0 01-.303.696c-.174.211-.423.388-.748.53l-1.703.744zm.34-.719l1.153-.504a1.13 1.13 0 00.471-.354.942.942 0 00.116-.938.81.81 0 00-.496-.45c-.236-.086-.51-.06-.82.075l-1.153.504.73 1.667zM55.658 64.073l-.496.387-1.616-5.025.488-.381 4.484 2.785-.496.387-3.734-2.376-.03.024 1.4 4.2zm-1.009-1.668l1.999-1.561.327.42-1.998 1.56-.328-.42z" fill="#fff"/></svg>