<svg width="70" height="71" fill="none" xmlns="http://www.w3.org/2000/svg"><path opacity=".2" fill-rule="evenodd" clip-rule="evenodd" d="M32.585 52.862c-2.648.732-3.677 2.451-2.299 3.84-3.067.167-5.883-.372-8.288-1.507-3.757-3.784-.953-8.468 6.265-10.461 7.217-1.994 16.115-.544 19.872 3.241 3.342 3.366 1.493 7.443-4.036 9.707l-.28.112c-.85.334-.91.353-2.433.814l-.01.003c-.77.211-.825.224-2.241.506-.704.123-.704.123-2.063.27-.675.058-.675.058-1.968.089-.6.004-.705-.002-1.933-.073h-.016c-.68-.054-.68-.054-1.995-.241-.715-.117-.715-.117-2.105-.442-.797-.205-.834-.218-2.248-.696l-.045-.016-.643-.246c-1.636-.65-3.035-1.495-4.062-2.51 2.394 1.127 5.197 1.652 8.251 1.47 1.39 1.373 4.634 1.895 7.268 1.167 2.646-.73 3.675-2.448 2.297-3.837-1.378-1.388-4.642-1.92-7.288-1.19zm20.452-1.575l.01-.011.45-.555c2.026-2.713 1.895-5.852-.862-8.63-5.056-5.09-17.028-7.042-26.739-4.36-9.016 2.49-12.915 8.1-9.382 12.964.2.253.395.495.577.714a9.097 9.097 0 01-.577-.714 54.945 54.945 0 01-1.49-1.973 52.838 52.838 0 01-1.544-2.7C10.956 40.876 15.4 35.296 24.76 32.71c10.9-3.01 24.337-.819 30.011 4.895 2.63 2.65 3.132 5.59 1.828 8.283-.226.459-.537 1.023-.814 1.523-.08.143-.156.282-.226.41-.847 1.358-1.111 1.723-2.063 2.9-.143.19-.296.38-.46.566zm5.888-14.575l.008-.362c0 .12-.002.241-.008.362zm.029-1.277l-.021.915c-.01-1.945-.88-3.916-2.707-5.756-6.1-6.142-20.541-8.498-32.257-5.262-8.202 2.267-12.892 6.672-12.876 11.218l.01.346a6.539 6.539 0 01-.01-.346l-.027-.926c.067-3.098.299-4.17.96-6.816l.1-.334c1.133-3.666 5.426-7.022 12.17-8.886 11.346-3.133 25.332-.851 31.238 5.096 1.158 1.167 1.919 2.386 2.31 3.616.228.769.475 1.809.66 2.587.33 1.827.342 2.087.449 4.534v.014zm-5.142-14.73l-.44-.514c.156.17.302.342.44.514zm-1.805-2.035c.417.438.918 1.004 1.364 1.52a10.332 10.332 0 00-.297-.31c-5.204-5.242-17.53-7.252-27.528-4.491-4.269 1.18-7.425 3.04-9.232 5.19.292-.353.637-.748.945-1.1l.268-.307c1.313-1.346 1.623-1.596 3.114-2.793l.443-.325c1.511-1.079 3.497-1.996 5.903-2.662 7.63-2.107 16.863-.928 21.828 2.578 1.456 1.069 1.688 1.286 3.192 2.7z" fill="#fff"/><path fill-rule="evenodd" clip-rule="evenodd" d="M34.99 66.443a2.033 2.033 0 110 4.067 2.033 2.033 0 010-4.067zm-10.411 3.868l2.043-6.04-.654-.221-2.114 2.53-.266.319c-.37.44-.768.915-1.146 1.461l-.018-.006c.327-.788.6-1.535 1.036-2.826l.706-2.088-.618-.209-2.043 6.04.645.219 2.04-2.457.308-.369c.404-.483.845-1.01 1.183-1.473l.018.006a47.987 47.987 0 00-1.017 2.742l-.73 2.16.627.212zm-4.115-3.45l2.087-4.076-.649-.331-.918 1.793-1.204-.617.919-1.793-.649-.332-2.087 4.075.648.332.885-1.726 1.203.617-.884 1.726.649.332zm-3.447-6.482c.184.028.346.076.512.183.566.362.56 1.123-.016 2.023-.485.757-1.233 1.31-1.847.917a1.187 1.187 0 01-.371-.384l-.442.425c.071.136.258.334.465.467.964.618 2.099.075 2.808-1.032.817-1.274.686-2.314-.158-2.855-.271-.173-.543-.257-.73-.265l-.22.521zm-2.882 2.703l.38-.483-.818-.643 2.45-3.117-.573-.45-2.45 3.117-.818-.643-.38.483 2.21 1.736zM11.04 60.54l3.314-3.16-.516-.54c-.769.262-1.81.679-2.188.83-.5.203-.993.425-1.521.694l-.014-.014c.54-.448.943-.807 1.662-1.492l1.088-1.038-.463-.487-3.314 3.16.529.555 1.967-.817c.14-.059.29-.12.448-.185.418-.172.88-.362 1.302-.556l.013.014c-.553.462-1.052.925-1.627 1.473l-1.136 1.084.456.48zm-2.624-2.784l.483-.38-.643-.818 3.117-2.45-.45-.572-3.117 2.45-.642-.819-.484.38 1.736 2.21zm-2.157-2.81l2.937-3.254a.637.637 0 01.35-.19c.224-.054.568-.095.869-.064.336.033.625.117.833.23l.383-.56c-.15-.094-.518-.263-1.034-.314-.872-.082-1.973.253-3.097.637l-2.88.959.388.605 2.513-.97c.32-.115.655-.24.896-.339l.01.016-.2.19c-.153.143-.318.297-.495.48l-1.886 1.93.413.645zm-2-3.276l.548-.28-.475-.927 3.528-1.806-.332-.649-3.528 1.807-.474-.926-.547.28 1.28 2.5zm-.37-7.45l-.424-1.492c.87-.227 1.616.043 1.789.653.07.246.077.48.05.664l.546-.018c.07-.236.039-.59-.03-.836-.339-1.193-1.63-1.445-2.796-1.115-.6.171-1.153.475-1.495.897a1.52 1.52 0 00-.287 1.38c.09.318.277.629.435.77l.452-.245a1.715 1.715 0 01-.287-.558c-.214-.756.455-1.24 1.114-1.447l.423 1.492.51-.144zM.564 41.214l4.542-.577-.089-.704-2.046.26-.01-.075c-.074-.59.26-.89.856-1.148.39-.154.752-.306 1.019-.463l-.093-.732c-.297.176-.705.342-1.055.485l-.108.044c-.607.249-1.122.629-1.146 1.262L.208 38.407l.102.807 2.123.942.013.103-1.971.25.089.704zM0 36.001c.02.785.739 1.514 2.413 1.472 1.608-.04 2.338-.721 2.318-1.544-.018-.7-.635-1.508-2.403-1.463C.73 34.506-.02 35.188 0 36zm.588.014c-.017-.644 1.058-.794 1.758-.811.71-.018 1.79.077 1.806.702.017.662-1.01.82-1.767.84-.7.017-1.78-.079-1.797-.731zM.11 33.04l2.095.159c.84.064 1.478.15 1.722.435.097.102.163.22.187.403l.586-.088a1.034 1.034 0 00-.077-.49c-.269-.704-1.12-.863-2.412-.962l-1.444-.11.076-.999 3.962.301.055-.726-4.565-.348L.11 33.04zm.66-5.43c-.177.765.337 1.65 1.97 2.027 1.566.361 2.443-.116 2.628-.918.158-.682-.238-1.617-1.961-2.016-1.558-.359-2.454.114-2.637.906zm.565.159c.145-.627 1.223-.504 1.906-.347.691.16 1.714.522 1.573 1.131-.149.645-1.183.542-1.92.372-.683-.158-1.705-.52-1.559-1.156zm.176-2.805l4.337 1.467.23-.68-3.745-1.268.45-1.335-.59-.2-.682 2.016zm1.03-2.975l4.171 1.887.309-.682a50.939 50.939 0 00-1.569-1.692l-.023-.023a19.582 19.582 0 00-1.213-1.151l.008-.017c.618.33 1.101.57 2.006.98l1.371.619.277-.612-4.172-1.886-.316.698 1.495 1.517.336.342c.317.325.668.682 1.008 1.003l-.008.017a32.723 32.723 0 00-1.977-.956l-1.43-.647-.274.603zm1.8-3.752l1.6.92c.73.42 1.312.242 1.66-.365.156-.271.252-.609.23-.873l.014-.024 1.484.853.359-.623-3.97-2.283-.363.632 2.026 1.165c.009.213-.022.457-.155.686-.254.443-.619.375-1.02.144l-1.502-.863-.363.631zm5.848-4.381a4.821 4.821 0 00-.315-.26c-.818-.642-1.82-.96-2.398-.224-.567.722-.224 1.786.944 2.703 1.101.866 2.159.975 2.836.112.223-.283.403-.635.449-.923l-.494-.244c-.03.206-.134.46-.326.706-.328.417-.905.661-2.011-.196l1.315-1.674zm-1.734 1.333c-.473-.408-.872-1.034-.58-1.406.216-.275.753-.3 1.463.283l-.883 1.123zm5.01-2.556c-.062.176-.139.325-.276.469-.464.486-1.21.336-1.983-.401-.651-.62-1.052-1.46-.55-1.988.164-.171.349-.256.448-.291l-.333-.514c-.146.043-.377.189-.547.367-.79.829-.473 2.046.479 2.953 1.095 1.045 2.14 1.113 2.833.388.222-.233.356-.484.399-.666l-.47-.317zm-1.975-3.478l2.998 3.461.536-.464-1.35-1.559.057-.05c.451-.39.885-.278 1.43.076.345.24.671.458.95.591l.558-.483c-.315-.151-.684-.402-1-.616l-.085-.058c-.544-.368-1.145-.585-1.685-.255l-.27-2.495-.616.533.393 2.289-.079.068-1.3-1.502-.537.464zm4.25-3.39c-.661.423-.912 1.416-.008 2.826.868 1.353 1.829 1.625 2.521 1.18.59-.377.961-1.323.006-2.812-.863-1.346-1.834-1.634-2.519-1.194zm.293.509c.541-.348 1.227.494 1.605 1.083.383.597.861 1.572.336 1.909-.558.357-1.225-.44-1.634-1.076-.378-.59-.857-1.564-.307-1.916zM18.112 4.4L20.2 8.475l.64-.327-1.803-3.52 1.255-.642-.284-.556-1.895.97zm3.93-1.926c-.731.288-1.17 1.213-.556 2.771.59 1.496 1.48 1.949 2.247 1.647.65-.257 1.198-1.114.549-2.76-.587-1.486-1.484-1.957-2.24-1.658zm.188.556c.598-.236 1.109.722 1.365 1.373.26.66.542 1.708-.04 1.938-.615.243-1.116-.668-1.394-1.372-.257-.651-.538-1.7.069-1.939zM28.057.75l.805 4.508.717-.128-.697-3.902 1.295-.232.697 3.902.708-.126-.806-4.507-2.72.485zm4.585 5.76l.728-.018-.057-2.27h.019c.129.252.382.52.808.51.718-.02 1.401-.718 1.358-2.41C35.462.818 34.91-.02 34.115 0c-.36.01-.715.189-.948.686l-.02.001-.051-.585-.653.016.018.286c.02.279.043.632.056 1.141l.125 4.965zm.61-4.68v-.007c-.003-.12-.005-.232.01-.344.037-.417.32-.84.65-.85.578-.014.825.775.849 1.72.023.928-.145 1.765-.75 1.78-.2.005-.533-.11-.69-.759-.032-.102-.035-.233-.04-.374v-.003l-.029-1.164zm4.81-1.713c-.782-.06-1.58.581-1.708 2.251-.122 1.604.482 2.4 1.303 2.462.698.053 1.564-.479 1.698-2.243.121-1.594-.481-2.408-1.292-2.47zm-.072.582c.641.05.682 1.134.63 1.832-.055.708-.26 1.773-.882 1.726-.66-.05-.714-1.089-.656-1.843.053-.698.257-1.764.908-1.715zm5.074 2.712c.035-.11.063-.229.101-.395.234-1.014.096-2.056-.817-2.266-.894-.207-1.71.556-2.045 2.004-.315 1.364.036 2.367 1.105 2.614.351.08.746.095 1.026.014l.011-.552a1.538 1.538 0 01-.778.006c-.516-.12-.982-.538-.677-1.904l2.074.479zm-1.943-1.003c.168-.602.565-1.229 1.026-1.122.34.078.59.554.366 1.444l-1.392-.322zm3.687-.99L43.34 5.753l.672.228.66-1.954.072.025c.565.19.688.622.659 1.271-.032.419-.055.81-.03 1.119l.7.236c-.029-.345 0-.787.025-1.166l.008-.111c.041-.655-.076-1.284-.634-1.583l2.014-1.495-.77-.261-1.775 1.497-.099-.034.637-1.881-.672-.228zm3.468 1.22l-.254.56.949.429-1.633 3.612.664.3 1.632-3.612.949.428.253-.56-2.56-1.157zm3.422 1.637l-2.283 3.97.648.372c.663-.47 1.543-1.165 1.863-1.417.422-.336.832-.69 1.263-1.097l.017.01c-.391.583-.676 1.041-1.17 1.902l-.75 1.304.582.336 2.282-3.97-.664-.382-1.655 1.34-.38.307c-.352.283-.74.595-1.089.9l-.016-.01c.4-.599.747-1.185 1.143-1.874l.783-1.361-.574-.33zm-.14 7.405l.571.45 1.403-1.785.015.012c-.061.277-.037.645.298.908.565.444 1.536.34 2.582-.99.93-1.184 1.04-2.18.415-2.671-.283-.222-.67-.31-1.168-.076l-.015-.011.333-.485-.514-.403-.174.24c-.162.226-.368.51-.678.906l-3.069 3.905zm3.453-3.217l.001-.001c.076-.097.146-.185.23-.262.295-.298.782-.444 1.043-.24.454.357.141 1.122-.443 1.866-.573.729-1.236 1.266-1.712.892-.157-.122-.341-.424-.05-1.025.043-.099.125-.203.212-.315l.719-.915zm4.92 1.905c-.542-.568-1.565-.626-2.776.53-1.164 1.11-1.248 2.104-.68 2.7.483.506 1.482.691 2.762-.53 1.157-1.103 1.255-2.11.694-2.7zm-.444.384c.444.466-.252 1.299-.759 1.782-.514.49-1.379 1.145-1.81.693-.456-.48.199-1.287.746-1.809.507-.483 1.372-1.138 1.823-.665zm-1.37 4.508c.088.159.278.431.54.766.544.691 1.436 1.398 2.277.738.49-.386.542-.98.222-1.57l.015-.012c.425.327.985.381 1.416.042.722-.567.308-1.446-.16-2.04a5.615 5.615 0 00-.71-.753l-3.6 2.83zm3.666-1.979l.004.004c.09.084.18.168.26.27.315.402.442.856.026 1.183-.38.298-.955.04-1.224-.302l-.204-.26 1.138-.895zM60.23 14.49l.192.245c.357.454.545 1.076.062 1.456-.484.38-.985.064-1.33-.375-.083-.106-.15-.215-.195-.29l-.016-.025 1.287-1.011zm1.462 5.823c.222-.198.556-.413.85-.601l1.665-1.068c.868-.556 1.164-1.218.668-1.99-.245-.382-.61-.654-.832-.736l-.343.41c.237.107.454.271.607.51.312.486.035.843-.482 1.175l-.12.077c-.564-.863-1.49-1.36-2.453-.742-.661.424-.844 1.103-.512 1.62.209.327.558.485.96.463l.015.024-.38.3.357.558zm.797-1.421c-.064.04-.143.092-.225.122-.428.173-.776.07-.95-.2-.137-.216-.118-.588.384-.91.837-.536 1.367.169 1.572.487l-.78.5zm3.81.413l-4.173 1.886.3.664 1.837-.83.557 1.233-1.836.83.3.663 4.172-1.886-.3-.663L65.39 22l-.557-1.233 1.767-.8-.3-.663zm1.794 4.14l-4.405 1.25.204.72c.803.126 1.918.242 2.323.284.537.054 1.077.088 1.67.097l.005.018c-.686.145-1.21.274-2.166.546l-1.447.41.184.647 4.404-1.25-.209-.738-2.12-.195c-.157-.013-.325-.03-.5-.046-.446-.042-.936-.089-1.395-.114l-.005-.018a32.661 32.661 0 002.127-.545l1.51-.429-.18-.637zm1.552 6.677a4.798 4.798 0 00-.088-.975c-.087-.484-.296-.956-.557-1.178-.276-.258-.595-.375-1.024-.298-.651.117-.911.653-.93 1.194l-.018.004a1.003 1.003 0 00-.397-.496c-.317-.202-.776-.228-1.181-.251-.108-.006-.212-.012-.309-.021a1.82 1.82 0 01-.502-.122l.135.755c.101.03.222.056.357.06.149.016.297.024.44.032.413.022.789.042 1.03.235.152.098.272.287.33.613l.039.215-1.928.344.123.69 4.48-.801zm-2.191-.32l-.05-.28c-.087-.483.133-1.032.682-1.13.568-.102.88.303.97.806.02.103.028.207.018.314l-1.62.29zM70 35.11l-4.577-.116-.02.748c.73.359 1.76.801 2.134.962.496.211 1.003.404 1.566.588l-.001.02a29.308 29.308 0 00-2.23-.123l-1.504-.038-.017.671 4.578.115.02-.765-1.968-.817c-.14-.057-.29-.12-.447-.186a36.153 36.153 0 00-1.314-.53v-.019c.718.066 1.4.092 2.193.112l1.57.04.017-.662zm-.91 7.987l-4.404-1.25-.205.718a50.883 50.883 0 001.813 1.452l.014.01c.428.33.87.641 1.37.96l-.005.018a29.456 29.456 0 00-2.13-.673l-1.446-.411-.184.647 4.405 1.25.21-.737-1.703-1.28c-.12-.09-.25-.188-.383-.29a35.65 35.65 0 00-1.144-.842l.005-.018a32.82 32.82 0 002.096.654l1.51.43.181-.638zM65.404 46.6l-.1.255c-.191.484-.598.924-1.18.694-.395-.156-.597-.652-.37-1.224.114-.29.338-.548.523-.709l-.422-.35c-.26.223-.494.558-.633.91-.308.784-.222 1.723.632 2.06.607.24 1.16-.052 1.48-.607l.009.004c-.063.545.14 1.062.66 1.267.668.263 1.262-.081 1.536-.777.15-.378.2-.816.118-1.174l-.487-.03c.04.26.029.572-.075.836-.156.395-.482.603-.905.436-.466-.184-.55-.746-.387-1.16l.094-.237-.493-.194zm.896 4.196l-3.945-2.268c-.187.23-.377.503-.532.774-.217.377-.37.91-.289 1.394.058.393.287.754.73 1.01.836.48 1.645.061 2.084-.702.094-.164.162-.321.192-.391l1.402.806.358-.623zm-2.377-.192l-.002.002c-.273.476-.784.739-1.326.427-.525-.301-.6-.89-.332-1.358.057-.098.112-.176.185-.264l1.608.924a1.49 1.49 0 01-.133.269zm.746 3.03l-3.97-2.283-.349.607 3.97 2.283.349-.608zm-5.733 1.238c.045-.18.108-.336.23-.492.415-.529 1.173-.45 2.013.21.707.555 1.186 1.353.736 1.926a1.186 1.186 0 01-.418.333l.381.48c.142-.057.358-.225.51-.418.707-.9.275-2.082-.759-2.894-1.19-.935-2.237-.904-2.857-.116-.199.253-.309.516-.333.7l.497.271zm2.332 3.305l-3.314-3.16-.49.513 1.493 1.423-.052.055c-.411.432-.855.362-1.43.061-.367-.205-.712-.39-1.003-.498l-.509.534c.328.121.72.336 1.054.519l.09.05c.577.314 1.196.473 1.702.093l.507 2.457.561-.589-.608-2.24.072-.076 1.438 1.371.489-.513zm-7.693.987c.229.19.489.49.718.755l1.294 1.495c.675.78 1.372.977 2.066.376.343-.297.56-.697.61-.929l-.456-.28a1.38 1.38 0 01-.417.674c-.437.377-.83.155-1.233-.31l-.092-.107c.773-.682 1.132-1.67.382-2.535-.514-.593-1.212-.677-1.676-.274-.294.253-.4.622-.322 1.016l-.021.019-.351-.334-.502.434zm1.522.585a1.19 1.19 0 01-.153-.206c-.233-.399-.18-.757.062-.968.193-.167.565-.2.955.25.65.75.029 1.377-.258 1.625l-.606-.701zm.161 3.848l-2.471-3.855-.614.393 1.088 1.697-1.139.73-1.088-1.696-.613.393 2.472 3.854.613-.393-1.047-1.633 1.139-.73 1.047 1.633.613-.393zm-3.646 2.229l-2.087-4.075-.665.34c.033.812.137 1.928.174 2.334a19.1 19.1 0 00.233 1.656l-.018.009a29.39 29.39 0 00-.958-2.017l-.686-1.34-.598.307 2.087 4.075.682-.35-.223-2.117c-.017-.15-.033-.31-.05-.478-.046-.45-.097-.949-.163-1.41l.017-.01c.285.662.587 1.273.95 1.98l.716 1.398.589-.302zm-4.095 1.897l-1.467-4.337-.708.24a51.078 51.078 0 00-.17 2.333c-.027.539-.034 1.08-.013 1.673l-.018.006a29.539 29.539 0 00-.653-2.136l-.482-1.425-.636.215 1.467 4.338.726-.246.09-2.127c.005-.15.012-.31.02-.478.02-.453.043-.955.046-1.422l.018-.007c.185.697.395 1.345.65 2.098l.502 1.488.628-.213zm.232 1.75c-.311-.684-.776-.847-1.34-.656-.583.197-.854.608-.695 1.343l.485-.163c-.08-.383-.006-.667.334-.783.323-.109.566.049.732.422l.484-.164zm8.594-23.086a22.62 22.62 0 01-.782 1.435l-.004.007c-1.195 1.837-1.35 2.075-2.518 3.458-1.776 2.022-4.79 3.765-8.831 4.882-9.662 2.668-21.56.75-26.66-4.283-.254-.287-.343-.377-.08-.08a8.998 8.998 0 01-.375-.398 52.813 52.813 0 01-2.067-2.686 59.252 59.252 0 01-1.29-2.224 8.025 8.025 0 01-.255-.477c.08.151.165.312.256.477A9.918 9.918 0 0015.3 48.51c.026.053.116.145.09.088 5.725 5.65 19.078 7.802 29.922 4.808 5.6-1.548 9.441-4.167 11.083-7.124l.204-.393a8.003 8.003 0 01-.204.393l-.054.105zM16.871 29.879c.026-.05.11.03.081.082 5.252 5.182 17.5 7.156 27.446 4.409 9.479-2.617 13.463-8.585 9.415-13.665a53.987 53.987 0 00-1.805-2.036c-.844-.864-1.617-1.495-2.504-2.176.273.224.53.457.769.697 4.403 4.435 1.117 9.923-7.34 12.259-8.413 2.323-18.773.653-23.215-3.73-.03.039-.1-.032-.07-.069-3.071-3.094-2.401-6.7 1.157-9.39l-.163.119c-1.457 1.138-1.71 1.391-3.114 2.792-.363.396-.802.922-1.179 1.373l-.23.277c-2.227 2.834-2.148 6.14.752 9.058zm4.214-13.826l-.28.206c.091-.069.185-.138.28-.206zm28.419.44c-.22-.18-.448-.354-.688-.524l.01.007c.234.178.46.349.678.517zm-15.755 6.96v-.001h-.008c-.23-.012-.459-.028-.687-.047v-.007h-.077a20.634 20.634 0 01-.936-.102v-.004h-.035c-.33-.045-.657-.096-.98-.155v-.006h-.028c-.26-.048-.518-.1-.772-.158v-.002h-.006a22.69 22.69 0 01-.207-.048v-.005h-.021l-.193-.047v-.006h-.023l-.19-.05v-.004h-.015a16.686 16.686 0 01-.732-.212v-.001h-.003l-.158-.05v-.004h-.009l-.151-.05v-.003h-.008l-.152-.052v-.001h-.003c-.143-.05-.285-.102-.424-.156v-.005h-.01a12.137 12.137 0 01-.257-.102v-.004h-.01a13.96 13.96 0 01-.364-.155v-.005h-.01a11.517 11.517 0 01-.95-.476v-.005h-.008a9.703 9.703 0 01-.686-.422v-.004h-.007l-.038-.026-.115-.08v-.001h-.002a9.862 9.862 0 01-.211-.156v-.004h-.007a9.21 9.21 0 01-.26-.205v-.009h-.01a7.13 7.13 0 01-.453-.408c.05-.04.005-.09-.047-.047l-.024-.024v-.001a5.89 5.89 0 01-.374-.416v-.01h-.008a5.057 5.057 0 01-.365-.516v-.019h-.011a4.215 4.215 0 01-.203-.373 4.242 4.242 0 01-.106-.242v-.025h-.01a3.69 3.69 0 01-.097-.284v-.036h-.01a3.49 3.49 0 01-.044-.17v-.044h-.01a3.474 3.474 0 01-.043-.24v-.027h-.003a3.24 3.24 0 01-.008-.8h.011v-.089c.014-.095.031-.19.053-.285v-.003c.05-.214.12-.427.212-.637h.002v-.006l.046-.1h.007v-.017l.012-.024.02-.04a1.29 1.29 0 01.012-.027h.01v-.018l.046-.088h.007v-.014l.053-.093v-.001c.063-.108.13-.214.203-.32h.01v-.016c.034-.049.069-.096.105-.143h.002v-.005c.067-.088.138-.176.212-.263h.002v-.003l.044-.05h.01v-.01a6.48 6.48 0 01.578-.577h.009v-.008l.052-.045v-.001c.148-.127.304-.252.468-.373h.013v-.01l.212-.15h.002v-.001l.156-.106h.004v-.002c.137-.09.278-.178.424-.265h.003v-.001l.088-.052h.019v-.01c.153-.088.312-.173.476-.257h.004v-.002l.1-.051h.006v-.003l.104-.05h.004v-.002c.188-.091.383-.18.583-.265h.004v-.002c.084-.036.17-.07.255-.105h.011v-.005l.263-.102h.004v-.001c.3-.113.61-.22.934-.319h.027v-.008l.15-.045h.01v-.003c.098-.03.196-.058.296-.085l.07-.019h.008v-.002l.191-.051h.022v-.006l.19-.048h.023v-.006l.198-.047h.016V11.6c.155-.036.312-.07.468-.103h.012v-.003l.255-.05h.012v-.003l.277-.05h.043v-.009c.207-.036.414-.069.622-.098h.019v-.003c.126-.018.253-.035.38-.05h.047v-.006a21.15 21.15 0 011.045-.101h.076v-.006c.358-.025.717-.04 1.075-.048h.911c.372.008.742.024 1.109.05v.004h.043c.2.014.4.031.597.05v.003h.018c.155.015.309.033.463.051v.002h.015c.12.015.24.03.358.047v.007h.042c.22.03.437.066.652.103v.003h.015l.252.046v.008h.038c.729.14 1.431.317 2.097.531v.003h.007l.153.05v.003h.01l.15.05v.003h.006c.142.049.283.1.42.152v.008h.021c.345.132.677.273.994.425v.002h.006l.1.05v.004h.01l.097.048v.005h.01l.097.05v.003h.008c.161.084.319.17.472.259v.008h.015a9.4 9.4 0 01.732.472v.008h.012c.144.104.282.21.416.319v.001h.002c.19.155.367.316.532.482.135.136.259.274.373.412v.014h.011l.042.053c.056.07.11.14.16.211v.003h.002c.036.05.072.101.105.152v.008h.005c.124.188.228.378.315.57v.017h.009c.016.035.03.07.044.105v.002h.002c.065.156.118.314.159.471v.009h.002c.061.235.095.47.104.704v.203h.002l-.001.054v.006c-.006.14-.02.281-.045.42h-.009v.047c-.013.074-.03.147-.048.22h-.005v.021a4.2 4.2 0 01-.741 1.474h-.006v.008a5.82 5.82 0 01-.21.259h-.004v.003l-.044.05h-.01v.01c-.158.179-.333.353-.524.524h-.009v.008l-.051.045h-.002v.002a8.08 8.08 0 01-.684.532h-.01v.007a9.57 9.57 0 01-.848.526h-.006v.004c-.231.128-.474.251-.728.37h-.02v.009l-.095.044h-.011v.005c-.2.09-.407.178-.62.262h-.02v.009c-.085.033-.17.066-.257.098h-.01v.004c-.302.112-.618.218-.944.316h-.017v.005a17.797 17.797 0 01-1.439.369h-.002c-.085.019-.17.036-.256.053h-.01v.002a18.613 18.613 0 01-.567.105h-.02v.003c-.229.039-.458.073-.689.104h-.006c-.14.02-.281.037-.423.053h-.003c-.177.02-.355.038-.532.053h-.056v.006c-.236.02-.472.035-.708.048h-.039v.002c-.768.038-1.537.038-2.294-.002zm-1.255-10.796c2.609-.722 5.826-.197 7.185 1.172 1.358 1.367.343 3.06-2.265 3.782-2.597.717-5.793.2-7.164-1.151-.066.034-.087.01-.02-.022-1.359-1.368-.346-3.06 2.264-3.781zm-18.596 29.75c6.154 6.072 20.506 8.386 32.159 5.167 7.99-2.206 12.645-6.443 12.868-10.863l.03-1.277c-.036-1.88-.083-2.185-.45-4.54v-.007c-.116-.633-.335-1.416-.526-2.102 1.168 4.903-3.46 9.904-12.291 12.344-11.287 3.118-25.185.876-31.147-5.003-.004.02-.097-.072-.092-.093-2.354-2.37-3.07-4.966-2.361-7.43l-.061.205c-.825 3.103-.864 4.19-.96 6.81v.006l.037 1.271c.103 1.834.977 3.683 2.697 5.417-.002-.054.095.04.097.096zm-1.771-13.934l-.04.13.04-.13z" fill="#fff"/></svg>