<svg width="90" height="74" fill="none" xmlns="http://www.w3.org/2000/svg"><path fill-rule="evenodd" clip-rule="evenodd" d="M45.223 2.531l.182-.031.174.028c.18-.05.326-.121.45-.2l-.624-.453-.632.46c.123.078.272.145.45.196zm-.312-1.015L44.17.98c-.022.142-.094.834.5 1.285l.24-.748zm1.226.737c.57-.44.511-1.103.49-1.262l-.73.525.24.737zm.166 14.04a2.227 2.227 0 011.315 2.03v1.783h.975v2.863h-6.406v-2.863h.979v-1.784c0-.947.587-1.753 1.422-2.077l.018-.007c.308-.146.279-.574.279-.574l-.645-1.551c.127-.383.518-.518.518-.518v-.38s-.38-.537-.264-1.284c.01-.067.224-2.907.402-5.279.114-1.504.212-2.82.236-3.12a.555.555 0 01-.28-.48l.027-.16c-1.63-.868-.84-2.3-.491-2.478l.066.06c-.054.043-.188.22-.272.463h.917L45.405 0l.304.937h.904c-.08-.242-.219-.42-.273-.463l.061-.06c.353.178 1.143 1.607-.474 2.468l.028.17a.551.551 0 01-.293.486l.065.871c.164 2.188.558 7.43.574 7.522.111.747-.266 1.284-.266 1.284v.38s.392.135.523.518l-.646 1.551s-.037.428.275.574l.121.055h-.005zm.638 32.562l-.148-.006V24.144h.998v24.745a77.332 77.332 0 00-.85-.035zm17.109 3.574V34.101h1.936v19.153a53.246 53.246 0 00-1.936-.825zm-6.468-18.328h2.8v-1.658h2.735V52.07a50.076 50.076 0 00-5.535-1.735V34.101zm-1.1 15.97a50.705 50.705 0 00-4.204-.764v-9.146h4.205v9.91zm-5.318-.904a48.156 48.156 0 00-2.415-.221V24.144h2.415v25.023zM26.867 32.443h2.834v1.658h2.717v16.402a49.98 49.98 0 00-5.55 1.83v-19.89zm11.195 16.909a50.548 50.548 0 00-4.502.866V40.16h4.502v9.19zm-12.13 3.362a52.36 52.36 0 00-1.922.851V34.101h1.922v18.613zm19.399-3.886l-.492.005v-24.69h.998v24.69l-.253-.002a19.445 19.445 0 00-.253-.003zm-6.151-9.815h-.008v-14.87h2.758v24.803c-.925.06-1.84.148-2.75.257v-10.19zm4.553 9.842c-.282.01-.563.02-.846.034V24.143h.998v24.705l-.152.006zm8.61 9.757c.128-.116.254-.331.254-.662v-.1h-.663v.075l-.102.232-.25.072-.247-.072-.098-.232v-.075h-.66v.1c0 .33.124.546.25.662.164.158.435.233.755.233.326 0 .599-.075.762-.233zM50.9 62.8v-3.558h-.83v5.793h.83v-.666l1.364-2.895v3.561h.827v-5.793h-.827v.66L50.9 62.8zm-27.536.687h.24c.167 0 .373-.01.554-.209.163-.178.162-.356.16-.544v-1.278c0-.196 0-.468-.225-.65-.184-.152-.403-.152-.615-.151h-.114v2.831zm-.907-2.832h-.031c-.215 0-.435-.001-.618.15-.226.183-.226.455-.225.651v1.269c-.001.191-.002.372.16.553.181.199.388.209.555.209h.239v-2.832h-.08zm.907-.753h.196c.359 0 .797.018 1.16.38.385.39.422.893.422 1.324v1.002c0 .323-.033.81-.356 1.178-.37.427-.9.46-1.139.46h-.283v.789h-.827v-.789h-.283c-.24 0-.77-.033-1.142-.46-.323-.367-.353-.855-.353-1.178v-1.002c0-.431.04-.934.421-1.323.363-.363.801-.38 1.161-.38h.196v-.745h.827v.744zm-14.742.738c0-.176-.014-.349-.173-.506A.607.607 0 008 59.967a.606.606 0 00-.445.167c-.156.157-.174.33-.174.506v2.992c0 .178.018.35.174.507.09.09.24.165.445.165.207 0 .36-.075.448-.165.159-.158.173-.33.173-.507V60.64zm-2.068.123c0-.438.033-.86.432-1.233.247-.23.584-.372 1.015-.372.433 0 .77.142 1.02.372.4.372.428.795.428 1.233v2.748c0 .435-.029.858-.428 1.231-.25.234-.587.374-1.02.374-.43 0-.768-.14-1.015-.374-.399-.373-.432-.796-.432-1.231v-2.748zm-4.04-1.521H0v5.793h.823v-5.008h1.691v-.785zm3.064 0H3.12v5.793h2.485v-.789H3.95V62.48h1.436v-.749H3.95v-1.703h1.628v-.785zm7.495 0h-2.518v5.793h.827v-5.008h1.691v-.785zm1.621 2.754h.45c.16 0 .382-.027.556-.213.157-.179.156-.362.155-.553v-.443c0-.198 0-.468-.22-.653-.186-.15-.406-.15-.623-.15h-.318v2.012zm-.823-2.754h1.23c.359 0 .797.013 1.157.379.38.39.424.896.424 1.324v.167c0 .325-.033.801-.355 1.174-.338.388-.787.452-1.14.452h-.493v2.297h-.823v-5.793zm4.368 3.814l.43-2.202.447 2.202h-.877zm.975.736l.273 1.243h.83l-1.266-5.793h-.73l-1.265 5.793h.827l.272-1.243h1.06zm7.871-.992v-3.558h-.826v5.793h.826v-.666l1.368-2.895v3.561h.83v-5.793h-.83v.66L27.085 62.8zm6.088-3.558v5.793h-.828V62.92c-.17.066-.374.116-.634.116-.555 0-.83-.233-.928-.346-.266-.301-.29-.755-.29-1.036v-2.412h.83v2.227c0 .174 0 .499.153.672l.405.152.464-.117v-2.934h.828zm3.793 0h-2.454v5.793h2.485v-.789h-1.663V62.48h1.441v-.749h-1.44v-1.703h1.631v-.785zm2.914 1.315l-.108-.381a.501.501 0 00-.429-.21.527.527 0 00-.433.194c-.133.165-.137.371-.137.573v2.853c0 .19 0 .36.102.512a.515.515 0 00.425.206c.18 0 .362-.065.464-.198.039-.056.116-.19.116-.474v-.206h.827v.241c0 .572-.196.901-.349 1.06-.174.19-.514.39-1.08.39-.548 0-.863-.225-1.045-.441-.288-.334-.287-.721-.287-1.016v-3.03c0-.38.047-.81.418-1.133.258-.233.638-.339.943-.339.348 0 .754.13 1.004.372.207.208.371.555.371.958v.399h-.802v-.33zm2.594 1.166v-2.481h-.824v5.793h.824v-2.566h.67l.719 2.566h.898l-.891-2.998.181-.24c.068-.168.087-.348.109-.543l.008-.08.057-.55c.044-.374.078-.534.163-.613l.219-.091h.108v-.747h-.123c-.215 0-.53.008-.773.218-.246.213-.297.56-.329.874l-.06.524c-.038.404-.071.611-.18.761l-.309.173h-.467zm4.165-2.481V62.8l1.366-2.898v-.66h.823v5.793h-.823v-3.561l-1.366 2.895v.666h-.828v-5.793h.828zm12.118 4.245h.239c.167 0 .373-.01.555-.209.162-.18.16-.361.16-.553v-1.269c0-.196 0-.468-.225-.65-.183-.152-.4-.152-.612-.151H58.757v2.831zm-.911-2.832h-.03c-.212 0-.432-.001-.616.15-.222.18-.221.448-.22.643v1.234l-.001.053c-.002.188-.003.365.157.544.18.197.387.207.555.207h.24v-2.831h-.085zm.91-.753h.2c.356 0 .795.018 1.158.38.38.39.424.893.424 1.324v1.002c0 .323-.033.81-.36 1.178-.369.427-.898.46-1.139.46h-.282v.789h-.827v-.789h-.28c-.243 0-.769-.033-1.143-.46-.322-.367-.355-.855-.355-1.178v-1.002c0-.431.04-.934.422-1.323.361-.363.797-.38 1.155-.38h.201v-.745h.827v.744zm3.523 3.154l.428-2.202.447 2.202h-.875zm.976.736l.271 1.243h.832l-1.27-5.793h-.725l-1.266 5.793h.826l.272-1.243h1.06zm2.92-4.55v2.48h.475l.301-.172c.11-.15.142-.357.182-.761l.061-.524c.033-.314.084-.66.334-.874.235-.21.552-.218.766-.218h.123v.747h-.105l-.214.09c-.095.08-.127.24-.167.614l-.058.55-.005.042c-.022.21-.043.402-.111.581l-.182.24.892 2.998h-.902l-.718-2.566h-.672v2.566h-.827v-5.793h.827zm4.796 2.837l-.794-2.837h-.944l1.3 4.028-.106.484-.168.352-.38.14h-.206v.789h.3c.214 0 .461-.01.711-.16.42-.255.558-.841.693-1.413l.065-.268.987-3.952h-.856l-.363 1.652a25.35 25.35 0 00-.214 1.184h-.025zm4.956 2.956h-.828v-5.051h-.664l-.026.814-.02.664c-.018.58-.029.93-.056 1.271-.04.611-.087.918-.123 1.077-.058.28-.138.552-.395.835-.31.331-.628.39-.965.39h-.193v-.789h.09l.323-.08a.68.68 0 00.287-.38c.094-.295.148-1.136.167-1.426v-.005c.026-.453.047-.819.059-1.557l.026-1.556h2.318v5.793zm2.531-.75h-.37v-1.959h.42c.186 0 .31.042.439.153.185.155.226.35.226.633v.314c0 .813-.498.86-.715.86zm-.37-2.702v-2.341h-.827v5.793h1.258c.758 0 1.085-.318 1.241-.548.224-.332.239-.655.239-.936v-.679c0-.215 0-.629-.355-.959-.357-.332-.788-.33-1.108-.33h-.448zm5.031-2.341v.785h-1.026v5.008h-.832v-5.008H80.24v-.785h2.88zm3.32 0h-2.46v5.793h2.485v-.789H84.81V62.48h1.44v-.749h-1.44v-1.703h1.629v-.785zm3.561 0v.785h-1.026v5.008h-.827v-5.008H87.12v-.785H90zm-81.479 9.13H7.77v5.264h.751v-3.295h.039l.79 2.382h.397l.793-2.382h.035v3.296h.756v-5.265h-.756l-.986 2.904h-.03l-1.038-2.904zm3.793 0h2.288v.714h-1.534v4.55h-.754v-5.264zm4.27 2.582l-.722-2.582h-.857l1.181 3.664-.094.444-.151.316-.349.13h-.191v.71h.274c.196 0 .421-.006.647-.142.384-.232.509-.757.632-1.275.02-.085.04-.17.062-.253l.895-3.594h-.778l-.328 1.505c-.072.306-.153.791-.196 1.077h-.026zm4.017-1.047v2.085l.92-1.626v-.459h.756v3.73h-.756v-2.085l-.92 1.627v.457h-.758v-3.729h.758zm4.079 2.085h-.018l-.799-2.085h-.691v3.73h.709v-2.122l.634 1.587h.317l.63-1.587v2.121h.707v-3.729h-.695l-.794 2.085zm3.874-.52v-.49l-.109-.293-.274-.104-.294.13-.093.298v.459h.77zm-.77 1.064l.096.321.291.105.302-.157.068-.259h.747v.03c0 .281-.053.648-.421.911a1.202 1.202 0 01-.696.213c-.347 0-.674-.145-.868-.364-.266-.292-.27-.673-.27-.903v-1.426c0-.266.053-.633.37-.903.168-.154.426-.255.743-.255.326 0 .595.101.78.27.336.283.38.66.38.952v.982h-1.522v.483zm3.104-2.629h-.753v3.73h.752V72.09h.764v1.546h.756v-3.729h-.756v1.505h-.764v-1.505zm3.165 0v2.085l.926-1.626v-.459h.75v3.73h-.75v-2.085l-.926 1.627v.457h-.752v-3.729h.752zm5.208-1.535h-.755v5.264h.755v-3.295h.04l.79 2.382h.395l.791-2.382h.035v3.296h.756v-5.265h-.756l-.981 2.904h-.032l-1.038-2.904zm4.545 4.44v.825h-.827v-.825h.827zm2.075.15h-.334v-1.733h.38l.402.136c.165.145.2.324.2.58v.253l-.134.529c-.159.217-.401.235-.514.235zm.025-2.404h-.36V69.05h.352c.25 0 .401.08.487.172l.144.364v.321l-.144.45c-.074.09-.221.2-.479.2zm.896-1.932c-.33-.234-.768-.254-.994-.254h-1.017v5.264h1.143c.45 0 .732-.119.9-.246.45-.34.45-.881.45-1.095v-.402c0-.258 0-.4-.152-.663a.76.76 0 00-.364-.33l.29-.243c.195-.23.226-.474.226-.817 0-.308-.008-.872-.482-1.214zm2.142 4.186v.825h-.825v-.825h.825zm4.104.825h.751v-5.265h-2.106l-.022 1.411c-.008.68-.025 1.012-.052 1.424-.017.265-.069 1.034-.147 1.3l-.266.34-.294.079h-.083v.71h.173c.308 0 .6-.052.882-.352.23-.257.309-.502.362-.76.03-.143.073-.42.107-.979.026-.305.035-.617.05-1.128l.02-.634.027-.733h.598v4.587zm3.145-2.572l-.112-.376-.27-.104-.271.104-.116.376v1.415l.116.377.271.105.27-.105.112-.377v-1.415zm-1.516.046c0-.296.018-.709.369-1 .2-.178.487-.262.765-.262.277 0 .564.084.769.262.342.291.365.704.365 1v1.322c0 .294-.023.71-.365 1.004a1.203 1.203 0 01-.769.263c-.278 0-.565-.089-.765-.263-.351-.293-.369-.71-.369-1.004v-1.322zm4.604.881h-.017l-.796-2.085h-.694v3.73h.713v-2.122l.625 1.587h.316l.637-1.587v2.121h.707v-3.729h-.696l-.795 2.085zm3.836-.927l-.108-.376-.274-.104-.268.104-.116.376v1.415l.116.377.268.105.274-.105.108-.377v-1.415zm-1.521.046c0-.296.027-.709.371-1 .203-.178.491-.262.768-.262.279 0 .566.084.764.262.347.291.37.704.37 1v1.322c0 .294-.023.71-.37 1.004-.198.174-.485.263-.764.263a1.2 1.2 0 01-.768-.263c-.344-.293-.371-.71-.371-1.004v-1.322zm3.854-1.204h-.751v3.73h.75V72.09h.766v1.546h.754v-3.729h-.754v1.505h-.765v-1.505zm3.867 1.158l-.115-.376-.27-.104-.268.104-.112.376v1.415l.112.377.269.105.27-.105.114-.377v-1.415zm-1.52.046c0-.296.025-.709.368-1 .202-.178.495-.262.768-.262.278 0 .565.084.768.262.35.291.371.704.371 1v1.322c0 .294-.021.71-.371 1.004-.203.174-.49.263-.768.263-.273 0-.566-.089-.769-.263-.343-.293-.368-.71-.368-1.004v-1.322zm4.606-.129v.055h.752v-.024c0-.293-.094-.632-.3-.843-.185-.201-.504-.321-.863-.321-.37 0-.622.134-.779.276-.315.286-.347.67-.347.97v1.299c0 .32 0 .677.296.981.204.209.525.325.868.325.34 0 .583-.121.752-.257.165-.14.374-.404.374-.851v-.067h-.753v.06l-.082.248-.302.129-.31-.129-.088-.317V71.07l.106-.356.292-.13.302.139.082.258zm2.92.083l-.113-.376-.269-.104-.27.104-.115.376v1.415l.116.377.27.105.268-.105.112-.377v-1.415zm-1.521.046c0-.296.027-.709.37-1 .204-.178.485-.262.77-.262.277 0 .563.084.768.262.342.291.364.704.364 1v1.322c0 .294-.022.71-.364 1.004a1.203 1.203 0 01-.769.263c-.284 0-.566-.089-.77-.263-.342-.293-.37-.71-.37-1.004v-1.322zm4.197 1.85h-.344v-.919h.344l.32.116.086.275v.136l-.08.264-.326.129zm-.013-1.52h-.332v-.856h.332l.3.096.095.262v.077l-.096.302-.3.119zm.899-1.264c-.16-.158-.427-.27-.738-.27h-1.243v3.73h1.142c.28 0 .574-.02.813-.242a.9.9 0 00.3-.696v-.174l-.158-.533-.346-.248.294-.192.179-.545v-.18c0-.206-.083-.478-.243-.65zm2.584 1.835l-.26-.02-.426.157-.108.391.078.307.295.172c.23 0 .42-.147.42-.479v-.528zm0 1.258h-.013l-.256.285-.438.145-.57-.196c-.23-.22-.272-.56-.272-.86 0-.267.016-.678.236-.93.245-.295.67-.326.884-.326.056 0 .198 0 .429.024v-.393l-.099-.314-.298-.12-.3.135-.097.238h-.713a1.125 1.125 0 01.303-.803c.191-.186.497-.306.843-.306.339 0 .617.12.804.297.273.27.313.624.313.884v2.606h-.756v-.366z" fill="#fff"/></svg>