<svg width="120" height="47" fill="none" xmlns="http://www.w3.org/2000/svg"><path fill-rule="evenodd" clip-rule="evenodd" d="M79.195 1.069c-1.144.123-2.295.504-3.18 1.257.169.34.341.677.514 1.015.157.308.314.616.469.925 1.245-.935 2.992-1.063 4.396-.426.719.329 1.29.948 1.566 1.687h-2.748l-1.68.001v2.43h1.82c.9 0 1.8 0 2.701.003-.141.497-.38.972-.749 1.338-.666.68-1.645.963-2.577.96-.976.02-1.936-.336-2.703-.93-.159.338-.329.67-.499 1.003-.202.396-.403.79-.587 1.195.28.22.578.418.906.562 1.301.583 2.777.718 4.18.502 1.113-.17 2.203-.616 3.038-1.384.887-.807 1.421-1.945 1.61-3.117.203-1.272.107-2.613-.4-3.806a5.235 5.235 0 00-2.293-2.55c-1.14-.64-2.497-.814-3.784-.665zm14.055.012h-1.44V2.28c-1.434.03-2.957.442-3.96 1.523-.93.988-1.188 2.442-.977 3.748.144.947.62 1.85 1.373 2.452.993.803 2.305 1.102 3.561 1.098.004.284.004.567.004.851l.001.681H94.4c.004-.239.004-.478.004-.717 0-.272-.001-.543.004-.815 1.138.002 2.308-.244 3.267-.878a3.85 3.85 0 001.621-2.298c.345-1.392.113-2.999-.884-4.077-1.01-1.103-2.55-1.548-4.007-1.568-.002-.278-.002-.556-.002-.834v-.364H93.25zM89.57 6.417c.043-.495.276-.98.674-1.285.442-.351 1.02-.446 1.567-.487v1.752c0 .78 0 1.559.002 2.338-.607-.028-1.273-.124-1.729-.564-.471-.443-.57-1.14-.514-1.754zm4.834 2.32V4.645c.623.038 1.297.164 1.76.622.5.491.605 1.25.5 1.915-.062.444-.27.893-.653 1.147-.469.32-1.056.38-1.608.408zM53.579 1.212h-3.034v11.284a1646.66 1646.66 0 012.58 0V3.643h3.94v8.853h2.582v-6.64-4.643H53.58zm10.313 0c-.478 0-.956 0-1.434.002v5.64l.001 5.641c.625.002 1.25.001 1.876.001h.704v-2.06c-.001-1.685-.002-3.37.001-5.054a296.56 296.56 0 011.819 2.52c.406.567.813 1.135 1.222 1.7.069.137.22.124.355.112l.075-.006c.12-.115.213-.253.307-.39a1716.694 1716.694 0 011.291-1.81c.52-.728 1.04-1.454 1.558-2.183.004 1.382.003 2.764.002 4.146v3.025h2.582V6.223v-5.01h-.834c-.536-.002-1.073-.003-1.61.003-1.052 1.53-2.11 3.056-3.167 4.582l-.11.158c-.807-1.105-1.616-2.21-2.426-3.315l-1.047-1.43-1.165.001zm42.236 13.29l-.618.004c.047.45.4.812.832.917.54.126 1.181.104 1.616-.28.192-.159.265-.403.31-.638a33.64 33.64 0 00-.791 0c-.134.555-1.022.523-1.18-.003h-.169zm-14.608 1.11c-.598.056-1.188.322-1.572.792-.658.805-.725 2.007-.282 2.929.663 1.34 2.651 1.65 3.766.71l-.045-.09a44.023 44.023 0 01-.279-.56c-.63.457-1.556.537-2.193.052-.614-.464-.76-1.35-.508-2.048.174-.515.65-.913 1.191-.982.473-.08.953.057 1.361.296.095-.162.192-.322.289-.483l.089-.148c-.5-.418-1.184-.536-1.817-.468zm-38.645.063l-2.279.001c-.003.733-.003 1.466-.002 2.2v1.759c-.003.292-.006.585.026.876.279-.004.557-.004.836-.004.002-.643.002-1.285.002-1.928 0-.704-.001-1.409.001-2.114h2.135c.003.698.002 1.396.002 2.095 0 .65-.001 1.298.001 1.948h.853c.004-1.063.003-2.124.003-3.186v-1.647h-1.578zm4.098 0h-1.048V17.5c0 1.003-.002 2.005.004 3.008H58.79v-.811h-1.003l-1.003-.001v-.308-.922h1.734v-.806l-1.734-.001v-.299-.894h1.936v-.003l.001-.786c-.582-.003-1.164-.003-1.747-.002zm3.827 0h-1.375v.79h1.565c.002.622.001 1.244.001 1.866 0 .725 0 1.45.002 2.176h.85c.004-.72.003-1.44.003-2.161l.001-1.88h.49c.358 0 .716 0 1.075-.002v-.788c-.871-.002-1.741-.002-2.612-.001zm5.2 0c-.576 0-1.151 0-1.727.002l.001 2.238.001 2.592h2.864c.002-.27.002-.54.002-.81h-2v-1.231a623.815 623.815 0 001.717 0v-.806h-.605c-.377 0-.755.001-1.132-.006l-.001-.25a9.546 9.546 0 01.026-.94 201.104 201.104 0 001.925.002v-.791h-1.072zm3.105-.008c-.247.01-.493.02-.733.01v4.83h.856v-.484-1.258c.605.034 1.278.059 1.787-.33.83-.575.814-2.036-.096-2.526-.563-.291-1.192-.267-1.814-.242zm.124 2.132c-.001-.444-.003-.888.002-1.332.095.002.193-.002.292-.006.32-.013.647-.026.922.153.27.18.31.551.236.843-.075.282-.352.462-.629.5-.23.032-.462.015-.692-.001a19.469 19.469 0 00-.13-.009l-.001-.148zm4.44-2.124h-.941v1.851c0 .993 0 1.986.002 2.98.213-.007.431.002.65.011.6.025 1.209.05 1.75-.238.92-.476.981-2.002.09-2.538-.488-.302-1.088-.258-1.635-.212v-.237l.001-.826H75.552v-.791H73.67zm-.083 3.268v-.606l.13-.014c.31-.034.635-.07.924.07.462.21.49.973.042 1.213-.266.142-.57.124-.864.107a6.183 6.183 0 00-.232-.01v-.76zm3.093-3.268h-.171c.71 1.18 1.42 2.36 2.135 3.536-.016.029-.03.06-.046.09-.073.145-.15.298-.31.36-.162.08-.333.018-.492-.039l-.068-.024c-.104.244-.203.49-.289.74.295.114.618.227.936.136.501-.109.806-.576 1.004-1.012.308-.682.61-1.366.913-2.05.256-.58.512-1.158.771-1.737h-.058c-.271 0-.542 0-.812.002L79.114 18.2l-.065.153a472.24 472.24 0 01-1.565-2.675 83.058 83.058 0 00-.805-.002zm5.99-.008c-.246.01-.492.02-.732.01v1.81c0 1.007-.001 2.014.002 3.02l.852.001c.004-.435.004-.871.003-1.307v-.436c.633.038 1.348.057 1.859-.386.773-.612.713-2.015-.186-2.48-.56-.28-1.182-.256-1.798-.232zm.126 2.28c-.001-.493-.002-.986 0-1.48.09.001.18-.002.272-.006.282-.011.568-.023.832.088.517.222.505 1.073.01 1.315-.28.142-.598.119-.905.096l-.21-.014zm6.228-2.272h-2.728v4.833h.856v-1.685c0-.786-.001-1.572.002-2.358h1.87v-.79zm6.225-.001h-.855v4.834h.856c.002-.325.001-.65 0-.975 0-.503-.001-1.006.005-1.509.302.388.608.773.914 1.158.349.44.698.879 1.041 1.322.365.006.73.004 1.097.002-.42-.52-.843-1.036-1.267-1.552-.282-.344-.564-.687-.844-1.032.317-.362.636-.723.956-1.084.342-.387.685-.774 1.024-1.163h-1.03c-.499.59-.991 1.185-1.484 1.78l-.407.491c-.006-.42-.005-.84-.005-1.26 0-.338.001-.675-.001-1.012zm4.067 0h-.151v1.857c-.001.992-.002 1.985.005 2.977h.324l.42-.001 1.066-1.444c.484-.654.968-1.31 1.45-1.965.003.557.002 1.114.002 1.67-.001.58-.001 1.16.002 1.74h.853c.002-.86.002-1.72.002-2.579l.001-2.254h-.052c-.236 0-.472 0-.706.002-.46.63-.922 1.256-1.385 1.883-.375.508-.749 1.015-1.122 1.524-.006-.801-.005-1.602-.003-2.403l.001-1.004a64.294 64.294 0 00-.707-.002zm6.303.003a45.762 45.762 0 00-.861 0c.003.587.001 1.176 0 1.764-.003 1.023-.006 2.045.013 3.067h.216c.175 0 .349 0 .524-.002l.652-.885c.621-.843 1.242-1.686 1.87-2.523.002.549.002 1.097.002 1.646-.001.588-.001 1.176.002 1.764h.848c.002-.921.002-1.841.001-2.762l.001-2.07h-.052c-.236-.001-.472-.002-.707.001-.455.62-.911 1.238-1.367 1.856l-1.138 1.545c-.006-.827-.005-1.655-.004-2.483v-.918zm10.888 5.786h-.771c.02.463.395.838.835.939.524.128 1.142.096 1.575-.261a.847.847 0 00.311-.679c-.255 0-.51 0-.763.002-.115.575-1.043.54-1.187-.001zM50.888 22.64h-.318v4.83h.857v-.954l.001-2.485c.276.377.55.755.823 1.134.204.282.407.564.612.845.043.072.161.188.238.086.26-.343.507-.695.754-1.047.24-.343.482-.686.734-1.02.004.704.004 1.409.003 2.114v1.327l.867-.001v-2.102l.001-2.721a26.436 26.436 0 00-.82-.005l-.779 1.117c-.262.376-.524.751-.784 1.128-.313-.418-.62-.84-.927-1.26-.24-.33-.48-.66-.723-.987l-.539.001zm8.679 0h-2.794v4.83h2.864v-.797h-.777c-.411 0-.823 0-1.235-.002v-.308-.925c.379-.006.758-.005 1.137-.004h.6v-.797h-.627c-.37 0-.74.001-1.11-.003v-1.178c.426-.004.852-.003 1.279-.003h.66c.003-.27.003-.54.003-.81v-.002zm1.86.002c-.33-.003-.66-.003-.989 0 .604.772 1.208 1.542 1.814 2.313l-1.013 1.352-.87 1.161c.27.002.54.002.812.002h.17c.262-.352.52-.706.777-1.061.344-.474.688-.949 1.042-1.416.005.535.004 1.069.004 1.603v.874h.843v-.89c0-.53-.002-1.061.003-1.591.351.49.707.977 1.062 1.465.247.338.494.676.739 1.015.328.002.658.003.988-.002-.394-.536-.794-1.068-1.194-1.6l-.688-.919c.608-.767 1.213-1.536 1.817-2.306a82.952 82.952 0 00-.933-.002h-.058c-.58.762-1.157 1.525-1.734 2.289-.004-.518-.003-1.035-.003-1.552l.001-.736-.843-.001v1.01c0 .426 0 .852-.003 1.278-.418-.532-.826-1.072-1.233-1.611l-.511-.675zm9.44-.002l-2.172-.001-.024.42c-.068 1.236-.138 2.516-.76 3.612l-.25.002c-.094 0-.188 0-.281.002v1.661c.265.002.532.002.8.002v-.868a2086.003 2086.003 0 013.356 0v.866l.416.002h.392c.002-.492.001-.985 0-1.478v-.186h-.129l-.526-.003v-2.418-1.613h-.822zm-1.363.944l.01-.13h1.318v3.22h-.57c-.468-.001-.937-.002-1.405.001.482-.956.566-2.04.647-3.091zm4.086-.944l-.971.001c.677 1.125 1.356 2.248 2.035 3.372v.001c.164.193-.007.447-.17.576-.193.147-.442.066-.64-.02l-.014.035c-.095.232-.19.465-.283.698.41.196.93.258 1.319-.02.404-.302.603-.767.798-1.221.048-.114.097-.227.148-.337l.095-.214c.425-.956.85-1.912 1.27-2.87h-.867l-.269.632c-.29.684-.582 1.369-.878 2.05l-.544-.928-1.029-1.755zm5.29 0h-.847v4.83h.85v-.683-1.367c.451-.005.903-.005 1.354-.004h.852v2.054h.847v-1.84l.001-2.988c-.282-.002-.565-.002-.847-.002v.963l-.001 1.014h-.878c-.443 0-.886.001-1.329-.005l.001-1.48v-.492h-.002zm6.693-.009a62.118 62.118 0 00-.76 0c-.386.923-.775 1.844-1.164 2.765-.292.691-.584 1.382-.874 2.074h.007c.287 0 .574.001.862-.001.074-.185.15-.369.225-.553.091-.222.183-.445.271-.668h.701c.454-.001.907-.002 1.36.004.08.204.163.406.245.609.082.202.165.404.244.608.306.002.612.002.919 0-.323-.77-.647-1.538-.971-2.307-.356-.843-.712-1.686-1.065-2.53zm-.856 2.214c.136-.338.272-.676.426-1.006l.054-.018c.14.322.271.647.403.972.088.216.176.433.266.65-.461.002-.921 0-1.382 0h-.012c.084-.198.164-.398.245-.598zm4.495-2.21c-.256.01-.511.019-.76.006v1.755l.001 3.075h.855c.002-.413.002-.826.001-1.24v-.494c.602.037 1.265.057 1.775-.317.84-.565.84-2.028-.066-2.528-.558-.302-1.185-.28-1.806-.257zm.097 1.884c0-.354.001-.707-.002-1.06l.084-.008c.354-.03.725-.063 1.057.087.49.237.462 1.062-.019 1.297-.275.14-.585.118-.888.097-.078-.006-.156-.011-.232-.014v-.399zm7.315-1.408c-.668-.53-1.598-.666-2.41-.442a2.397 2.397 0 00-1.373 1.027c-.41.656-.473 1.495-.244 2.227.189.599.635 1.112 1.207 1.375.711.33 1.566.34 2.283.022a2.374 2.374 0 001.305-1.502c.272-.946.028-2.081-.768-2.707zm-3.193 1.46a1.564 1.564 0 011.159-1.157c.486-.105 1.027-.01 1.413.317.731.606.781 1.827.159 2.527-.513.565-1.448.645-2.071.22-.606-.404-.848-1.216-.66-1.906zm7.742-1.93c-.642 0-1.284 0-1.927-.002l-.01.224c-.059 1.298-.12 2.65-.767 3.808l-.428.002h-.108v.933l-.001.73c.19.002.38.002.569.002h.238v-.868h3.358l.001.868h.796v-1.665h-.655v-2.688-1.345h-1.066zm-1.121 1.016l.015-.2c.304-.005.608-.004.913-.004h.412v3.221h-.572c-.47-.001-.94-.002-1.409.001.48-.93.561-1.99.641-3.018zm3.753-1.017h-.002l-.001 2.415v2.415l.857.001.001-1.174v-.881h2.199v2.054h.847v-2.424l-.001-2.406h-.846v1.976h-2.199v-.659-1.316l-.855-.001zm5.224 0h-.002v1.203c-.001 1.21-.001 2.419.001 3.628.188-.003.38.003.573.01.625.022 1.261.044 1.82-.266.868-.461 1.014-1.783.371-2.487-.495-.497-1.256-.502-1.907-.44v-.549a201.3 201.3 0 010-1.098l-.856-.001zm.857 4.028c-.002-.526-.003-1.053 0-1.579l.127-.009c.297-.021.606-.043.881.094.565.261.501 1.234-.084 1.435-.246.092-.511.079-.769.066l-.155-.007zm3.76-4.027h-.847l-.001 3.219.001 1.61h.847v-4.83zm1.697 0l-.372-.002c-.004 1.024-.004 2.049-.003 3.074v1.757h.76l.782-1.059c.577-.781 1.154-1.563 1.733-2.344.003.732.002 1.463.002 2.195v1.208h.857l.001-3.023v-1.806h-.757c-.459.63-.921 1.255-1.383 1.881-.379.513-.757 1.026-1.134 1.54-.007-.775-.006-1.55-.005-2.325.001-.365.002-.73.001-1.095a86.426 86.426 0 00-.482-.002zm-1.162 5.809c-.212 0-.424 0-.635.005.062.39.318.74.701.869.57.198 1.286.176 1.758-.24.188-.157.256-.4.306-.63a23.168 23.168 0 00-.795-.002c-.124.554-1.031.524-1.178-.003h-.157zm-61.444 1.175c-.798-.192-1.688-.058-2.358.43.098.216.208.426.318.636l.008.014c.623-.424 1.474-.488 2.14-.128.386.202.634.59.737 1.005-.433.003-.866.003-1.298.002h-.857v.808h.832c.45 0 .9-.001 1.35.003-.1.44-.336.874-.746 1.094-.677.388-1.556.266-2.174-.181l-.144.281c-.076.147-.152.294-.226.442.805.573 1.916.639 2.816.26.668-.282 1.147-.922 1.28-1.63.133-.705.064-1.484-.339-2.095a2.214 2.214 0 00-1.339-.94zm11.257.555c-.65-.595-1.612-.761-2.452-.553a2.373 2.373 0 00-1.468 1.085c-.402.68-.448 1.542-.186 2.28.236.664.803 1.19 1.474 1.4.982.32 2.18.072 2.845-.753.805-.982.73-2.592-.213-3.46zm-3.013.762c.225-.298.566-.5.932-.57.481-.092 1.007.028 1.376.357.763.66.752 2.008-.025 2.652-.583.468-1.5.456-2.061-.044-.679-.58-.761-1.695-.222-2.395zm14.098-.814c-.634-.547-1.546-.695-2.348-.51a2.367 2.367 0 00-1.69 1.472c-.382 1-.13 2.271.752 2.93.63.484 1.488.605 2.253.43.753-.174 1.413-.73 1.685-1.46.368-.963.161-2.183-.652-2.862zm-3.283 2.165c-.146-.827.378-1.757 1.235-1.914.482-.1 1.015.009 1.391.336.782.658.774 2.035-.024 2.675-.41.33-.985.403-1.483.264-.6-.182-1.041-.744-1.12-1.361zm29.58-2.272c-.82-.634-2.04-.626-2.908-.095-1.1.712-1.317 2.316-.725 3.423.699 1.287 2.637 1.56 3.735.639-.112-.215-.224-.43-.334-.646-.65.48-1.634.534-2.263-.01-.532-.45-.637-1.229-.47-1.873.122-.45.453-.845.893-1.008.555-.211 1.197-.106 1.69.214l.152-.256a44.6 44.6 0 00.23-.388zM56.44 29.62h-.858V34.449c.286.002.572.002.858-.001v-.495c0-.657-.002-1.315.002-1.973.653.82 1.306 1.641 1.952 2.466.308.006.617.005.926.004h.169c-.46-.569-.923-1.134-1.386-1.7l-.719-.878a289.037 289.037 0 011.984-2.25 82.161 82.161 0 00-1.041 0c-.304.37-.61.738-.917 1.106-.323.388-.647.776-.967 1.168-.005-.475-.004-.949-.003-1.423v-.853zm10.27 0h-.85v4.83c.282 0 .565 0 .848.002.029-.562.02-1.124.01-1.686l-.007-.371c.721-.004 1.443-.002 2.165-.001h.043c.002.372.001.744 0 1.116v.94H69.764v-2.415-2.415h-.843v1.964c-.531.002-1.062.001-1.592.001h-.605c-.018-.42-.016-.84-.013-1.26 0-.236.002-.47 0-.705zm10.449 0h-.145l.001 4.83h.856v-1.362c0-.694-.001-1.388.004-2.083.209.293.42.584.632.875.303.416.605.832.9 1.253a.416.416 0 00.228-.17c.466-.662.934-1.32 1.404-1.978l.001 1.86.001 1.606h.855v-1.334c0-1.166.001-2.332-.002-3.498h-.81c-.215.294-.42.595-.626.895-.307.45-.614.9-.951 1.326a65.03 65.03 0 01-.87-1.179 74.23 74.23 0 00-.767-1.044c-.238.003-.474.003-.711.003zm7.056 0h-.849c-.004 1.61-.006 3.22.001 4.83.245 0 .49 0 .736.003.53-.706 1.054-1.418 1.578-2.13l.943-1.277c.004.703.004 1.405.003 2.108v1.297h.856V32.84v-3.22c-.249 0-.499 0-.747-.002a701.151 701.151 0 00-2.517 3.412c-.004-.682-.004-1.364-.003-2.046V29.62zm5.387 0h-.854c.002.247 0 .494 0 .741 0 .343-.002.686.003 1.029.01.494.241 1.02.706 1.244.603.294 1.344.19 1.911-.143-.002.566-.001 1.131 0 1.697v.263h.856v-2.416l-.001-2.415h-.856v.577l.001 1.502c-.384.237-.87.414-1.313.234-.319-.124-.442-.487-.45-.804a35.514 35.514 0 01-.004-.918c.001-.197.002-.394.001-.591zm6.879 0h-2.794a4938.034 4938.034 0 000 4.83h2.864a116.929 116.929 0 01-.002-.812h-.678c-.444 0-.888.002-1.332-.002v-1.221c.386-.003.773-.003 1.16-.003h.577v-.002c0-.27 0-.538-.002-.808h-.706c-.343 0-.686 0-1.03-.003v-1.18c.396-.004.792-.003 1.188-.003h.755v-.796zm6.807 0h-.857v4.83h.857v-.895c-.001-.527-.002-1.053.003-1.58.26.323.517.65.773.975.39.494.779.989 1.179 1.474.228.04.464.034.7.027.135-.004.269-.008.402-.003-.29-.352-.578-.706-.867-1.059-.413-.506-.826-1.011-1.243-1.513.378-.438.762-.871 1.146-1.305.28-.316.56-.632.837-.95l-.506-.001c-.174 0-.348 0-.522-.002-.357.42-.709.845-1.061 1.27-.279.336-.558.672-.839 1.006-.004-.501-.003-1.002-.002-1.504v-.77zm4.77 0h-.856v4.83h.756l.584-.792c.642-.869 1.284-1.738 1.925-2.609.004.709.003 1.418.002 2.126v1.275h.867v-2.424l.001-2.406-.756-.001c-.395.532-.788 1.066-1.181 1.6-.445.604-.89 1.208-1.339 1.81-.003-.679-.003-1.358-.003-2.036V29.62zm5.598 0h-.858v2.424l.001 2.407c.251 0 .503 0 .755-.002l1.512-2.05.999-1.352c.003.654.002 1.307.002 1.96v1.444h.226l.63-.003c-.002-.86-.002-1.718-.002-2.577 0-.75.001-1.501-.001-2.251h-.745c-.43.578-.858 1.16-1.285 1.74-.41.557-.82 1.113-1.232 1.669-.003-.687-.002-1.373-.002-2.058V29.62zm-52.984 7.508c-.52-.463-1.242-.655-1.928-.608-.668.047-1.326.35-1.75.877-.837 1.014-.732 2.708.303 3.55.998.803 2.618.737 3.507-.205.936-.969.89-2.723-.132-3.614zm-3.322 1.821c-.01-.671.419-1.343 1.072-1.545.553-.185 1.208-.061 1.634.346.66.635.68 1.8.066 2.472-.465.5-1.267.604-1.871.314-.585-.285-.94-.942-.9-1.587zm-3.814-2.412h-.859c0 .164 0 .328.002.492-.727.028-1.541.246-1.954.898-.47.752-.355 1.873.36 2.436.444.36 1.032.472 1.591.47l.002.323v.323h.856v-.215c0-.144 0-.287.003-.43.393-.006.791-.056 1.154-.22.478-.2.868-.618.997-1.124.155-.62.059-1.348-.41-1.812-.452-.465-1.118-.617-1.744-.648 0-.165 0-.329.002-.493zm-1.716 3.308c-.607-.362-.623-1.374-.042-1.768.259-.193.588-.23.898-.26.003.747.003 1.495 0 2.243l-.062-.007c-.274-.027-.558-.056-.794-.208zm1.717.213c-.003-.746-.003-1.493 0-2.24.307.03.632.07.891.255.557.378.577 1.313.049 1.724-.264.204-.608.233-.929.26l-.011.001zm12.975-3.468c-.135 0-.27 0-.405.002.363.64.746 1.268 1.129 1.897.327.538.655 1.075.97 1.62-.01.19-.143.37-.306.465-.177.096-.37.027-.545-.035a7.012 7.012 0 00-.04-.015c-.1.24-.198.482-.29.726.36.177.8.25 1.172.065.395-.2.623-.606.8-.993l.571-1.285c.363-.814.726-1.628 1.078-2.446H70.3c-.17 0-.341 0-.512-.002-.175.4-.346.803-.517 1.205-.21.495-.42.99-.64 1.48-.519-.899-1.04-1.797-1.576-2.686-.181.002-.362.002-.543.002zm5.88 0h-.862c-.003.992-.003 1.984-.002 2.976v1.858a200.506 200.506 0 00.851.001v-1.292c0-.718 0-1.437.002-2.155.243.319.477.645.71.97.27.379.541.756.826 1.122.017 0 .044 0 .07-.002l.054-.002c.302-.394.587-.8.873-1.208.21-.299.42-.598.636-.892.003.674.003 1.348.002 2.023v1.436h.857v-4.814c-.276 0-.551-.001-.826.002-.253.367-.509.733-.764 1.099-.262.374-.523.748-.782 1.123-.397-.53-.787-1.065-1.176-1.6l-.47-.644zm-9.81 3.005c0 .61.002 1.22 0 1.83a198.998 198.998 0 00.847 0v-.87-.87c.038 0 .076.002.113.003.563.02 1.168.04 1.644-.305.845-.552.87-2-.015-2.523-.558-.32-1.195-.299-1.825-.277-.255.008-.509.017-.756.003-.012 1.003-.01 2.006-.008 3.009zm.847-1.803v-.396c.09 0 .18-.004.27-.009.295-.013.594-.027.865.1.504.243.465 1.1-.047 1.314-.274.123-.574.103-.868.084a7.405 7.405 0 00-.217-.012c-.004-.36-.003-.72-.003-1.081zM23.75 1.058a20.582 20.582 0 00-8.789.502 20.492 20.492 0 00-9.595 5.914 20.44 20.44 0 00-5.06 10.29A21.238 21.238 0 000 21.062v.458a20.506 20.506 0 002.204 9.03 20.573 20.573 0 006.884 7.78 20.414 20.414 0 008.049 3.193c3.337.55 6.812.274 10.012-.826a20.454 20.454 0 007.063-4.153 20.513 20.513 0 005.214-7.338 20.508 20.508 0 001.576-8.41 20.47 20.47 0 00-2.41-9.16 20.613 20.613 0 00-6.07-6.948 20.377 20.377 0 00-8.772-3.63zm-4.095 6.66c-.28-.26-.165-.758.184-.894.397-.198.891.242.746.66-.094.399-.66.548-.93.234zm.032 1.851c.001-.288.002-.576 0-.864h3.325c-.086.158-.18.31-.274.463a7.468 7.468 0 00-.376.66c.086.27.235.516.384.763.093.156.187.311.265.472-.494.003-.987.002-1.48.001-.612 0-1.224-.001-1.837.004-.01-.5-.008-1-.007-1.499zM10.3 11.402c-.23-.3-.041-.775.322-.855.427-.124.852.381.63.777-.157.373-.734.419-.952.078zm17.863.147c-.352-.19-.35-.748 0-.94.352-.243.882.073.844.496-.003.407-.508.666-.844.444zm-11.979 9.253c.852-2.85.867-5.943-.005-8.788l1.627-.001c2.034-.001 4.068-.002 6.102.002.87 2.84.87 5.933.002 8.773-1.656.021-3.313.018-4.97.015a602.52 602.52 0 00-2.756-.001zm-5.894-6.015c-.002-.788-.003-1.575 0-2.363.48.002.959.002 1.438.001.626 0 1.251 0 1.877.004-.077.134-.158.266-.238.398-.133.22-.267.44-.386.667-.055.08-.01.158.031.233a.78.78 0 01.034.066c.178.31.352.621.525.933l.033.058c-.617.003-1.235.002-1.852.002h-1.462zm17.71-.001a403.8 403.8 0 010-2.36h1.405c.637 0 1.274-.001 1.911.002-.075.13-.152.258-.229.386-.152.255-.304.51-.445.772.188.323.369.649.55.975l.124.223c-.645.002-1.29.002-1.934.002h-1.382zM8.181 21.723a14.387 14.387 0 000-6.008l1.634-.001c1.412-.002 2.824-.003 4.236.005.42 1.972.423 4.03-.001 6.001-1.536.009-3.072.007-4.607.005l-1.262-.002zm17.881-.014a14.292 14.292 0 000-5.985h2.15c1.241-.002 2.482-.002 3.721.004a14.45 14.45 0 010 5.97 253.9 253.9 0 01-3.702.011 435.45 435.45 0 00-2.169 0zM14.3 23.639c.404-.636.81-1.273 1.22-1.907h.24l.732.003c-.329.527-.663 1.05-.998 1.574-.361.566-.723 1.131-1.078 1.702-.331.006-.663.006-.993.003l.877-1.375zm2.291-.25c.367-.55.733-1.1 1.097-1.651.33-.006.662-.006.994-.003-.284.425-.566.851-.849 1.277-.444.67-.888 1.34-1.337 2.007l-.726-.004-.256-.001c.357-.543.717-1.084 1.077-1.624zm3.012-.235v-1.409c.3-.002.603-.002.905 0-.002.404 0 .806 0 1.21 0 .692.002 1.385-.006 2.078-.3.006-.598.007-.897 0-.003-.627-.003-1.253-.002-1.879zm-11.4 1.861h-.236c.002-.288.001-.576 0-.864-.001-.498-.003-.996.009-1.494.58.006 1.16.005 1.74.004.49 0 .98 0 1.47.002-.083.154-.175.302-.266.45-.141.23-.283.46-.39.706.115.251.254.49.392.73.09.154.178.308.261.465-.993.003-1.986.002-2.98.001zm13.513.017c-.09-.006-.18-.011-.269-.013.236-.343.468-.69.7-1.036.297-.444.594-.888.9-1.326l.54.004.432.003c-.212.31-.42.622-.627.935-.314.472-.627.944-.958 1.404-.235.058-.477.043-.718.029zm2.169.006a13.548 13.548 0 00-.23-.005c.52-.798 1.055-1.588 1.593-2.373.312 0 .623 0 .936.006-.242.367-.488.732-.734 1.098-.246.366-.492.732-.735 1.1-.013.015-.025.032-.038.05-.04.057-.083.118-.159.112-.21.022-.422.017-.633.012zm4.123-1.17c0-.404 0-.808-.003-1.212.302-.005.604-.007.906-.002l-.001 2.369c-.3.016-.6.02-.9.011-.003-.389-.003-.778-.002-1.167zm2.774 1.147v-2.353h.423c.963-.001 1.927-.002 2.89.001-.092.16-.187.32-.281.48-.132.222-.264.445-.391.67l.292.524c.126.226.252.451.376.678h-3.309zM8.661 26.411c-.082-.15-.164-.3-.244-.45h5.125c6.361-.001 12.723-.002 19.084.002a2930.672 2930.672 0 01-4.53 5.882l-.104.136c-2.489-.002-4.978-.002-7.466 0v.826c0 .429 0 .858-.003 1.287.463.227.827.692.795 1.227.024.758-.757 1.398-1.496 1.234-.744-.116-1.243-.975-.962-1.677.108-.365.43-.58.73-.776.02-.434.017-.87.013-1.305a35.767 35.767 0 010-.816c-2.783-.002-5.565-.001-8.347 0a67.63 67.63 0 01-.582-1.462c.325-.201.617-.545.535-.955-.139-.715-.733-1.212-1.266-1.657l-.021-.018c-.1-.092-.217-.168-.334-.245-.221-.144-.442-.288-.553-.537a46.746 46.746 0 00-.374-.696zm18.398.486c-.32 0-.638 0-.957-.002-.015.312-.018.625-.013.939.323.004.646.005.97.001.002-.313.002-.625 0-.938zm-13.052.006h-.944c-.002.312-.002.623 0 .934h.944c.002-.311.002-.623 0-.934zm1.856.006a27.083 27.083 0 00-.923-.006c-.004.311-.004.623-.001.934.308.001.615 0 .923-.003v-.47l.001-.455zm1.865-.006l-.918.001c-.003.31-.003.621 0 .932.306.001.612.002.92 0 .002-.31.002-.622-.002-.933zm5.59-.005c-.31-.002-.618-.002-.927 0-.001.312-.001.625.002.939h.924v-.94zm1.857.003a42.25 42.25 0 00-.928-.003c-.001.313-.001.625.001.939h.925l.001-.455c0-.16 0-.32.002-.481zm-10.702 1.861h-.472c-.002.312-.002.625-.001.938l.947-.001v-.937h-.474zm9.79 0h-.945l.001.928h.944v-.928zm-7.455.003a33.272 33.272 0 00-.937 0l-.001.931c.312.005.626.005.938 0v-.93zm9.303-.002a87.96 87.96 0 00-.947 0l.001.926c.315.002.63.002.946 0v-.926zm24.53 15.842v1.623H120a439.13 439.13 0 010-1.623H50.64z" fill="#fff"/></svg>