<svg width="90" height="45" fill="none" xmlns="http://www.w3.org/2000/svg"><path fill-rule="evenodd" clip-rule="evenodd" d="M15.355 29.645h11.207v10.496A15.316 15.316 0 0115.355 45C6.875 45 0 38.126 0 29.645c0-8.473 6.874-15.348 15.355-15.348v11.541a8.598 8.598 0 00-7.154 3.807C5.939 33 6.29 37.59 9.258 40.555a8.595 8.595 0 006.097 2.526 8.595 8.595 0 006.087-2.515l.009-.007a.231.231 0 00.005-.006l.01-.01a4.317 4.317 0 10-6.094-6.115l-.017.02v-4.803zm8.446-9.792c.24-.992.428-2.65.463-4.221a25.65 25.65 0 00-.89-7.026c-.77-2.786-2.257-5.436-2.479-5.778-.221.342-1.402 2.495-2.444 5.862-.274 1.009-.773 3.2-.855 5.334-.101 2.587.253 5.16.393 5.882 0-.857.016-3.71.547-6.07.53-2.359 1.54-5.077 2.36-6.462.888 1.453 2 4.598 2.393 6.479.393 1.88.598 4.291.512 6zm-4.137 2.719c.069 2.56.787 4.217 1.248 5.089.479-.889 1.3-2.836 1.23-5.312-.102-2.53-.956-4.376-1.213-4.82-.29.444-1.282 2.564-1.265 5.043zM21.088.9c.649 1.012 2.611 4.07 3.449 7.74.94 4.12.922 6.65.513 9.538-.736 5.198-3.096 9.174-4.121 10.508-.7-.907-1.777-2.751-2.495-4.474 0 0-1.351-3.28-1.71-6.479-.36-3.197-.206-6.443.838-10.102.956-3.283 2.838-6.24 3.35-7.009.036.06.096.153.175.277V.9zm7.292 13.397h5.853V16.2H31.45v13.442h-3.07V14.297zm8.772 15.345H34.15l1.6-15.345h4.823l1.601 15.345h-3.004l-.284-4.078h-1.448l-.285 4.078zm.92-13.443l-.526 7.678h1.228l-.525-7.678h-.176zm8.135 8.071v2.89c0 .395.307.505.482.505.286 0 .483-.241.483-.505v-3.569c0-.482-.088-1.008-1.228-1.008h-1.25v-1.688h1.294c.876 0 1.184-.197 1.184-1.14v-3.051a.49.49 0 00-.483-.504c-.175 0-.482.11-.482.504v2.503h-3.069v-2.17c0-1.074.132-2.74 2.28-2.74h2.544c2.15 0 2.28 1.666 2.28 2.74v2.455c0 1.666-1.162 2.127-2.082 2.082v.155c2.06-.045 2.082 1.534 2.082 2.082v3.091c0 1.073-.13 2.74-2.28 2.74h-2.545c-2.148 0-2.279-1.666-2.279-2.74V24.27h3.07zm12.752-9.973h-7.104v15.345h3.07V16.2h.966v13.442h3.068V14.297zm1.794 15.345h3.069v-5.218h1.753c2.149 0 2.28-1.666 2.28-2.74v-4.647c0-1.074-.131-2.74-2.28-2.74h-4.822v15.345zm3.069-6.905V16.2h.395c.329 0 .57.285.57.766v5.004c0 .482-.241.767-.57.767h-.395zm7.805 6.905c-2.148 0-2.28-1.666-2.28-2.74v-9.865c0-1.074.132-2.74 2.28-2.74h2.543c2.148 0 2.28 1.666 2.28 2.74v9.865c0 1.073-.132 2.74-2.28 2.74h-2.543zm1.272-1.977c.285 0 .481-.241.481-.505V16.704c0-.263-.196-.504-.481-.504-.176 0-.483.11-.483.504V27.16c0 .395.307.505.483.505zM86.01 14.297H90v15.345h-3.07v-9.623h-.109l-1.578 9.623h-2.456l-1.577-9.623h-.11v9.623h-3.07V14.297h3.99l1.995 10.785 1.995-10.785zm3.987 20.11H28.38v10.58h61.617v-10.58zm-30.994 3.319h1.017v3.945h-1.503c.38-.707.486-1.53.486-2.75v-1.195zm2.547 3.945v-5.148h-4.042v1.813c0 1.955-.132 2.61-.592 3.335h-.212v2.503h1.486v-1.3h2.202v1.3h1.486v-2.503h-.328zm-29.524-2.698h1v-2.45h1.53v6.35h-1.53v-2.697h-1v2.698h-1.53v-6.351h1.53v2.45zm11.966-2.45h3.556v1.203h-2.025v1.247h1.813v1.203h-1.813v1.495h2.025v1.203h-3.556v-6.351zm28.383 2.733h.275c.38 0 .742-.186.742-.813 0-.628-.327-.779-.77-.779h-.247v1.592zm0 3.618h-1.53v-6.351h2.22c.885 0 1.857.319 1.857 1.937 0 1.566-.955 1.937-1.857 1.937h-.69v2.477zm13.163-5.21l.407 2.795h-.813l.397-2.795h.01zm2.344 5.21l-1.407-6.351h-1.83l-1.38 6.35h1.521l.195-1.273h1.167l.23 1.274h1.504z" fill="#fff"/></svg>