<svg width="90" height="46" fill="none" xmlns="http://www.w3.org/2000/svg"><path fill-rule="evenodd" clip-rule="evenodd" d="M70.661 16.11C63.517 6.342 51.964 0 38.937 0 19.01 0 2.552 14.82 0 34.013h2.66a39.386 39.386 0 00-.078 11.683H5.31c-1.1-7.418.122-14.942 3.186-21.55H5.608a38.196 38.196 0 00-2.143 6.031C7.494 14.371 21.848 2.671 38.937 2.671c11.423 0 21.63 5.235 28.347 13.439h3.377zm-56.25 3.808H8.335v1.701h1.872v6.334h2.094V21.62h1.872l.237-1.701zm.458 0v8.043h2.07v-2.862h.65c.657 0 1.597-.084 2.254-.603.772-.603.902-1.488.902-2.075 0-.68-.153-1.405-.849-1.931-.702-.534-1.696-.58-2.399-.58h-2.62l-.008.008zm2.07 3.54v-1.862h.719c.198 0 .512.023.688.23.137.16.152.411.152.625 0 .198-.007.641-.275.855-.198.152-.512.152-.672.152h-.611zm10.95 4.495l-2.43-8.043h-2.155l-2.59 8.043h2.17l.443-1.541h1.903l.412 1.541H27.89zm-3.072-3.136h-1.039l.32-1.313c.1-.389.177-.794.223-1.282.03.565.091.9.145 1.13l.351 1.465zm9.413 3.136V19.91h-2.07v2.953h-1.65V19.91h-2.071v8.043h2.07v-3.38h1.65v3.38h2.072zm6.908-7.593c-.245-.19-.787-.587-2.056-.587-1.07 0-2.43.312-3.262 1.823-.405.725-.55 1.511-.55 2.496 0 1.083.214 2.098.924 2.9.833.923 1.842 1.106 2.628 1.106 1.33 0 2.063-.442 2.507-.824l-.894-1.404c-.543.526-1.192.542-1.383.542-.268 0-.696-.084-1.032-.52-.336-.427-.397-.953-.397-2.357v-.021c0-.497 0-1.253.52-1.742.175-.16.443-.313.901-.313.36 0 .795.107 1.2.427l.878-1.518.016-.008zm6.586 7.593V19.91h-5.692v8.043h2.07v-6.418h1.559v6.418h2.063zm8.275-4.33c0-.816-.116-1.67-.695-2.5-.765-1.091-1.903-1.35-2.843-1.35-1.054 0-1.872.343-2.521.992-.833.831-1.177 1.96-1.177 3.365 0 1.404.428 2.22.825 2.724.573.748 1.475 1.237 2.804 1.237 1.735 0 2.453-.786 2.782-1.252.656-.915.825-2.027.825-3.216zm-2.315.255c0 1.313-.122 1.939-.443 2.274-.253.26-.581.313-.818.313-.443 0-.718-.19-.848-.313-.222-.206-.512-.679-.512-2.251 0-1.336.3-1.843.38-1.98l.002-.004c.29-.466.741-.527 1.009-.527.39 0 .634.16.771.298.29.29.451.832.451 2.19h.008zm3.346-3.968v8.043h2.071v-2.861h.65c.657 0 1.596-.084 2.254-.603.771-.603.901-1.489.901-2.076 0-.68-.145-1.404-.84-1.93-.703-.535-1.697-.58-2.4-.58h-2.62l-.016.007zm2.071 3.54V21.59h.718c.199 0 .512.023.68.229.138.16.153.412.153.625 0 .199-.015.641-.275.855-.199.153-.512.153-.672.153H59.1zm10.109-3.54h-6.075v1.702h1.872v6.334h2.094v-6.334h1.872l.244-1.702h-.007zm6.25 8.043V19.91h-2.07v2.953h-1.651V19.91h-2.07v8.043h2.07v-3.38h1.65v3.38h2.07zm7.732 0l-2.437-8.043h-2.147l-2.59 8.043h2.177l.436-1.541h1.902l.413 1.541h2.246zm-3.08-3.136h-1.038l.32-1.313c.092-.389.176-.794.222-1.282.03.565.092.9.153 1.13l.344 1.465zm7.825.046v3.09H90V19.91h-2.888c-.634 0-1.536.03-2.193.519-.336.252-.795.786-.795 1.763 0 .633.237 1.053.49 1.305.274.29.718.496 1.123.564v.038a1.356 1.356 0 00-.787.443c-.161.198-.29.519-.344.717l-.222.748a.842.842 0 01-.305.473 1.12 1.12 0 01-.444.183l-.351.07.435 1.388.642-.06c.527-.047 1.184-.108 1.582-.566.252-.297.359-.725.412-1.015l.138-.679c.03-.175.115-.519.336-.717.206-.183.497-.221.703-.221h.405zm.053-3.335v1.717h-.649c-.32 0-.947-.038-.947-.878 0-.366.068-.84.962-.84h.635zm-61.737 7.28v8.951h-2.3v-3.762h-1.841v3.762h-2.3v-8.951h2.3v3.29h1.841v-3.29h2.3zm6.923 8.944v.007l.007-.007h-.007zm0 0v-1.908h-3.072V34.02h2.239v-1.824h-2.239v-1.503h2.743l.168-1.893h-5.21v8.952h5.37zm2.223-8.944h5.624v7.051h.924v4.06h-2.109v-2.16h-4.18v2.16H33.55v-4.06h.695c.207-.473.375-.938.528-1.526a17.27 17.27 0 00.412-2.106c.054-.435.153-1.504.168-2.015l.046-1.404zm3.316 7.181v-5.41h-1.444l-.038.953c-.023.512-.115 1.26-.191 1.77a9.122 9.122 0 01-.336 1.481 7.454 7.454 0 01-.474 1.206h2.483zm9.498 1.763v.007l.007-.007h-.007zm0 0v-1.908H45.14V34.02h2.239v-1.824H45.14v-1.503h2.743l.168-1.893h-5.21v8.952h5.37zm7.8-8.944v8.967h-2.3v-7.15h-1.405L52.27 31.7l-.008.163c-.027.564-.104 2.214-.26 3.393-.084.573-.206 1.305-.703 1.809-.527.534-1.283.664-1.795.748l-.68.1-.481-1.611.336-.092c.183-.053.45-.16.634-.267.267-.183.382-.389.458-.61.145-.39.245-1.122.268-1.382.13-1.09.198-2.487.221-3.51l.038-1.633h5.716zm6.343 8.951v-3.441h-.444c-.236 0-.557.038-.787.244-.244.214-.336.595-.374.794l-.153.755c-.069.32-.183.794-.466 1.13-.43.513-1.152.578-1.737.631l-.02.002-.71.069-.49-1.542.382-.076a1.5 1.5 0 00.49-.206.996.996 0 00.343-.527l.245-.84c.06-.213.198-.572.382-.793a1.55 1.55 0 01.878-.488v-.038c-.45-.077-.94-.306-1.245-.626-.29-.283-.543-.748-.543-1.45 0-1.091.52-1.687.887-1.969.733-.542 1.742-.58 2.445-.58h3.216v8.951h-2.3zm.068-5.235V30.61h-.71c-.994 0-1.07.526-1.07.939 0 .938.695.976 1.055.976h.725zM49.978 45.452h-4.653v-1.328c.688-.603 1.49-1.328 2.055-2.038.497-.61.81-1.022.81-1.717 0-.381-.198-.671-.657-.671-.458 0-.78.221-1.276.664l-1.192-1.076c.864-.718 1.658-1.084 2.797-1.084 1.543 0 2.345.885 2.345 2.13 0 1.548-1.329 2.678-2.827 3.655.222-.039.55-.061.88-.061h2.123l-.397 1.526h-.008zm1.3-3.51c0 2.228 1.023 3.647 2.582 3.647v-.008c1.528 0 2.628-1.518 2.628-3.708 0-2.328-1.07-3.602-2.598-3.602-1.528 0-2.613 1.259-2.613 3.67zm2.628-2.39c.168 0 .275.161.366.443h-.007c.13.39.19 1.023.19 1.847 0 .756-.022 1.412-.114 1.855-.084.381-.206.61-.481.61-.23 0-.367-.237-.451-.656-.084-.397-.115-.97-.115-1.664 0-.9.054-1.602.191-2.015.092-.274.222-.42.42-.42zm8.38 5.9h-4.652v-1.328c.687-.603 1.49-1.328 2.055-2.038.497-.61.81-1.022.81-1.717 0-.381-.199-.671-.657-.671-.459 0-.78.221-1.276.664l-1.192-1.076c.863-.718 1.658-1.084 2.796-1.084 1.544 0 2.346.885 2.346 2.13 0 1.548-1.33 2.678-2.827 3.655.222-.039.55-.061.879-.061h2.124l-.397 1.526h-.008zm1.552 0H68.5l.397-1.526h-2.124c-.328 0-.657.022-.879.06 1.498-.976 2.828-2.106 2.828-3.655 0-1.244-.803-2.129-2.346-2.129-1.139 0-1.933.366-2.797 1.084l1.192 1.076c.497-.443.818-.664 1.276-.664.459 0 .657.29.657.671 0 .695-.313 1.107-.81 1.717-.565.71-1.367 1.435-2.055 2.038v1.328z" fill="#fff"/></svg>