<svg width="90" height="45" fill="none" xmlns="http://www.w3.org/2000/svg"><path fill-rule="evenodd" clip-rule="evenodd" d="M22.51 29.023h-7.155v4.802l.018-.02a4.318 4.318 0 016.105 6.105.164.164 0 01-.011.01l-.01.01v.001h-.001a.112.112 0 01-.005.005l-.01.008-.01.01a8.595 8.595 0 01-6.076 2.505 8.595 8.595 0 01-6.097-2.526C6.29 36.967 5.939 32.376 8.2 29.023a8.598 8.598 0 017.154-3.807V13.675C6.875 13.675 0 20.55 0 29.023c0 8.48 6.874 15.355 15.355 15.355 4.422 0 8.405-1.87 11.207-4.86V29.024H22.51zm67.487 4.761H28.38v10.58h61.617v-10.58zM71.54 37.451v3.218c0 .38.265.566.53.566.257 0 .53-.186.53-.566v-3.218c0-.363-.273-.521-.53-.521-.265 0-.53.158-.53.52zm2.59.106v2.847c0 1.264-.627 1.998-2.06 1.998-1.414 0-2.06-.734-2.06-1.998v-2.856c0-.999.628-1.786 2.07-1.786 1.44 0 2.05.805 2.05 1.795zm-27.084 4.695v-6.348h-4.014V38.9c0 1.963-.026 2.22-.45 2.22-.151 0-.301-.018-.372-.054v1.07c.265.115.495.185.822.185 1.034 0 1.477-.628 1.477-3.032v-2.184h1.008v5.146h1.529zm-15.009-1.203h1.008v-5.145h1.476v5.145h1.008v-5.145h1.53v6.348h-6.551v-6.348h1.53v5.145zm5.98-5.145h3.553v1.202h-2.025v1.247h1.813v1.202h-1.813v1.494h2.025v1.203h-3.554v-6.348zM49.53 41.11h.265c.442 0 .751-.15.751-.778 0-.636-.344-.84-.724-.84h-.292v1.618zm0-2.758h.69c.901 0 1.856.398 1.856 1.962 0 1.618-.972 1.937-1.857 1.937h-2.218v-6.348h1.529v2.449zm7.57 2.077h-.31v-2.776h.327c.54 0 .734.486.734 1.388 0 .92-.211 1.388-.751 1.388zm-2.104-2.776h.318v2.776h-.3c-.54 0-.76-.468-.76-1.388 0-.902.202-1.388.742-1.388zm1.795-1.14v-.61h-1.477v.61h-.451c-1.158 0-2.016.742-2.016 2.528 0 1.813.858 2.53 2.016 2.53h.45v.68h1.478v-.68h.45c1.167 0 2.016-.718 2.016-2.53 0-1.785-.849-2.528-2.016-2.528h-.45zm7.376-.61v6.348h-1.53v-5.146h-1v5.146H60.11v-6.348h4.058zm2.754 2.732h-.274v-1.592h.248c.441 0 .769.15.769.778s-.363.814-.743.814zm-1.804 3.616h1.53v-2.476h.69c.901 0 1.856-.37 1.856-1.936 0-1.618-.972-1.936-1.857-1.936h-2.219v6.348zm13.463-6.348h-3.554v6.348h3.554v-1.203h-2.025v-1.494h1.813v-1.202h-1.813v-1.247h2.025v-1.202zm2.247 2.529l1.07-2.53h1.662l-1.406 2.803 1.406 3.546h-1.61l-.707-2.21-.415.733v1.477h-1.459v-6.348h1.459v2.529zm4.522 3.819h1.405v-5.146h1.123v-1.202h-3.73v1.202h1.202v5.146zM23.8 19.23c.24-.992.428-2.65.463-4.222a25.65 25.65 0 00-.89-7.026c-.77-2.786-2.257-5.436-2.479-5.778-.221.342-1.402 2.495-2.444 5.863-.274 1.009-.773 3.2-.855 5.333-.101 2.588.253 5.16.393 5.882 0-.856.016-3.71.547-6.07.53-2.358 1.54-5.077 2.36-6.461.888 1.453 2 4.598 2.393 6.479.393 1.88.598 4.29.512 6zm-4.137 2.718c.069 2.561.787 4.218 1.248 5.09.479-.89 1.3-2.836 1.23-5.312-.102-2.53-.956-4.377-1.213-4.82-.29.443-1.282 2.564-1.265 5.042zM21.088.278c.649 1.012 2.611 4.07 3.449 7.74.94 4.12.922 6.649.513 9.537-.736 5.198-3.096 9.175-4.121 10.508-.7-.906-1.777-2.75-2.495-4.473 0 0-1.351-3.28-1.71-6.479-.36-3.197-.206-6.444.838-10.102C18.518 3.726 20.4.77 20.912 0c.036.06.096.153.175.277zm13.145 13.397H28.38V29.02h3.069V15.578h2.784v-1.903zM34.15 29.02h3.003l.285-4.078h1.448l.284 4.078h3.004l-1.601-15.345h-4.823l-1.6 15.345zm3.398-5.765l.526-7.678h.176l.525 7.678h-1.227zm8.66 3.283v-2.89h-3.069v2.632c0 1.073.132 2.74 2.28 2.74h2.544c2.15 0 2.28-1.667 2.28-2.74v-3.092c0-.548-.021-2.126-2.082-2.082v-.154c.92.045 2.082-.416 2.082-2.082v-2.455c0-1.075-.13-2.74-2.28-2.74h-2.545c-2.148 0-2.279 1.665-2.279 2.74v2.17h3.07v-2.503c0-.395.306-.504.48-.504a.49.49 0 01.484.504v3.051c0 .943-.308 1.14-1.184 1.14h-1.293v1.688h1.248c1.14 0 1.229.526 1.229 1.008v3.569c0 .263-.197.504-.483.504-.175 0-.482-.11-.482-.504zm5.648-12.863h7.104V29.02h-3.068V15.578h-.966V29.02h-3.07V13.675zM63.822 29.02h-3.07V13.675h4.823c2.149 0 2.28 1.665 2.28 2.74v4.647c0 1.074-.131 2.74-2.28 2.74h-1.753v5.218zm0-13.442v6.537h.395c.329 0 .57-.285.57-.768v-5.003c0-.482-.241-.766-.57-.766h-.395zm5.525 10.702c0 1.073.131 2.74 2.28 2.74h2.543c2.148 0 2.28-1.667 2.28-2.74v-9.865c0-1.075-.132-2.74-2.28-2.74h-2.543c-2.149 0-2.28 1.665-2.28 2.74v9.865zm4.034.258c0 .263-.197.504-.482.504-.176 0-.483-.11-.483-.504V16.082c0-.395.307-.504.483-.504.285 0 .481.241.481.504v10.456zM90 13.675h-3.99L84.015 24.46 82.02 13.675h-3.99V29.02h3.07v-9.623h.11l1.578 9.623h2.455l1.578-9.623h.11v9.623H90V13.675z" fill="#fff"/></svg>