<svg width="90" height="41" fill="none" xmlns="http://www.w3.org/2000/svg"><path fill-rule="evenodd" clip-rule="evenodd" d="M63.699 3.585v1.458H76.21c.834 0 2.086 0 2.907.834.822.834.834 2.086.834 2.907v12.512c0 .835 0 2.086-.834 2.907-.834.834-2.085.834-2.907.834H70.17c-1.041 0-2.399 0-2.907-1.147-.52-1.148.208-2.19.834-3.033l8.14-10.844H63.724l-5.005 6.673c-.839 1.117-1.564 2.085-1.564 3.336 0 1.252.675 2.152 1.564 3.337l1.252 1.668c1.25 1.669 2.502 3.337 4.17 4.171 1.669.834 3.64.834 6.37.834h5.41c3.134 0 7.81 0 10.945-3.134C90 23.764 90 19.188 90 17.52v-5.005c0-1.668 0-6.243-3.134-9.378C83.73.003 79.055.003 75.92.003L67.276 0c-.834 0-1.876 0-2.705.834-.834.834-.834 1.876-.834 2.705l-.038.046zm-14.914 6.47h12.386l-14.913 20.07H33.871l14.913-20.07zm-47.95.835C0 11.719 0 12.76 0 13.594l.013-.005v1.461h5.005v25.025h10.01V15.05h9.807c1.031 0 2.386 0 2.907 1.148.52 1.158-.21 2.2-.834 3.033l-8.14 10.844h12.513l5.005-6.673c.839-1.117 1.564-2.085 1.564-3.337 0-1.25-.676-2.152-1.563-3.334l-.001-.002-1.252-1.668-.088-.117c-1.233-1.629-2.453-3.24-4.082-4.054-1.669-.834-3.666-.834-6.37-.834H3.539c-.83 0-1.87.005-2.705.834z" fill="#fff"/></svg>