<svg width="90" height="60" fill="none" xmlns="http://www.w3.org/2000/svg"><path fill-rule="evenodd" clip-rule="evenodd" d="M42.984.938c-.477.897-1.124 2.116-1.265 2.194l-.157-2.99-.912.04.23 4.676.94-.01 1.762-3.082.188 2.964.913-.037L44.433 0l-.964.043c-.08.13-.264.477-.485.895zm-6.264.942l.242 2.06c-1.642.15-1.672-2.018-.242-2.06zm.941-.121c1.672-.182 1.686 1.994.286 2.027l-.286-2.027zm-1.067-.67l-.051-.466.99-.118.069.437.106.006c.908.05 2.005.109 2.145 1.66.124 1.38-.68 1.744-1.805 2.03l.04.513-.971.106-.069-.488-.072-.005c-.99-.061-2.031-.127-2.206-1.614-.152-1.302.686-1.919 1.824-2.06zm45.943 23.517l.845-.507-2.608-4.51 4.14-2.318.429.818-3.367 1.923.67 1.13 3.413-1.907.476.846-3.372 1.949.688 1.18 3.416-1.889.44.779-3.391 1.931.235.457-1.585.886-.429-.768zm4.231 15.642l.977.355-.362.985c-.14.383-.427.636-.765.511-.349-.12-.381-.514-.227-.902l.377-.95zm-.786-.351c-.076.349-.287.84-.44 1.168-.163.346-.34.668-.864.484-.617-.217-.296-.986-.038-1.605.07-.166.134-.322.175-.453l1.167.406zM84.4 42.514c.597.148.917-.095 1.242-.403.396 1.117 1.29 1.184 1.857.774.161-.117.37-.386.514-.75l.833-2.125-4.45-1.695c-.069.198-.167.432-.274.689-.54 1.287-1.305 3.117.278 3.51zm-4.753-26.935l-.881.781.915 1.01c.554.612 1.476-.131.903-.76l-.937-1.03zm-1.221 1.671c-.376-.397-.828-.876-.928-1.028l3.367-3.194 2.507 2.588-.588.521-1.823-1.843c-.12.135-.305.314-.477.48-.074.072-.146.141-.208.203l1.25 1.375c.773.85-.787 3.437-2.672 1.355a35.44 35.44 0 00-.428-.457zM67.531 5.99c-.018-.769-.859-1.457-1.697-1.112-.672.277-1.13 1.116-1.106 1.87.026.796.85 1.49 1.73 1.129.52-.213 1.091-1.095 1.073-1.887zm-3.806.761c-.073-1.37.898-2.638 2.058-2.815 1.355-.206 2.66.834 2.728 2.051.077 1.354-.881 2.663-2.015 2.824-1.438.204-2.704-.809-2.771-2.06zM4.096 21.27c.768-.265 1.736.366 2.043.76.57.73.123 1.654-.526 1.897-.814.304-1.873-.34-2.16-.732-.231-.317-.33-.8-.147-1.233.17-.4.349-.54.79-.692zm.054-.986c-.734.154-1.13.526-1.44 1.015-.77 1.208-.458 2.506.847 3.244 2.542 1.434 4.131-.98 3.655-2.549-.289-.952-1.706-1.993-3.062-1.71zm80.805 24.79c-.291-.44-1.21-1.145-1.994-.942-.759.197-1.314 1.036-.788 1.857.25.391 1.208 1.147 2 .964.689-.159 1.295-1.106.782-1.88zm-3.787 1.093c-.388-1.138.356-2.669 1.754-2.986 1.348-.306 2.71.83 3.023 1.736.465 1.344-.613 2.678-1.63 2.943-1.38.36-2.833-.77-3.147-1.693zM76.53 10.873c.854-.249 1.657.495 1.566 1.327-.071.657-.801 1.442-1.332 1.628-.85.297-1.752-.434-1.645-1.343.083-.709.835-1.444 1.411-1.612zm-.298-.916c-1.027.252-2.228 1.485-2.084 2.81.123 1.137 1.463 2.3 2.855 1.984.99-.225 2.179-1.492 2.036-2.818-.12-1.117-1.477-2.302-2.807-1.976zm-55.983-.16c1.785-.62.403-3.56-1.148-2.981-.816.304-1.139.966-.66 1.941.282.574.877 1.364 1.808 1.04zm-1.072-3.882c-3.522.833-1.622 5.447 1.056 4.765 3.295-.84 1.64-5.403-1.056-4.765zM4.556 18.299l1.893 1.346c.075.052.194.14.34.248v.001c.528.39 1.389 1.029 1.63 1.107.24-.238 1.894-2.498 2.097-2.843a.205.205 0 01-.011-.016c-.01-.015-.021-.031-.026-.023l-.607-.425-1.502 2.07c-.234-.077-.847-.526-1.047-.707l1.33-1.918-.692-.473-1.339 1.86-.82-.55 1.455-2.03-.635-.473L4.556 18.3zm66.705-6.766l-3.185-1.74 2.278-4.102 3.096 1.68-.381.695-2.23-1.194-.483.888 2.06 1.144-.378.692-2.097-1.118-.578 1.085 2.287 1.28-.39.69zm-20.904-6.55l3.56.416.115-.807-2.606-.304.129-1.23 2.38.274.072-.8-2.345-.295.12-1.007 2.56.302.079-.798-3.509-.427-.555 4.675zm-35.091 8.75c-.18-.155-2.518-3.675-2.572-3.955l2.918-1.829.115.126c.127.156.258.347.298.54-.155.11-.419.271-.709.449-.561.344-1.22.748-1.372.941l.561.791c.107-.064.28-.178.482-.312.54-.354 1.287-.846 1.538-.912l.399.662-1.952 1.286.649 1.016 2.292-1.379c.052.136.125.246.2.36.063.092.126.187.181.302l-3.028 1.914zm69.61 15.247l.785-.177L85 26.25l1.208-.296.635 2.242.772-.185-.59-2.29 1-.257.659 2.417.78-.183-.911-3.363-4.582 1.192.904 3.453zM31.753 2.684l-.2 1.717 1.19-.286c-.075-.17-.852-1.36-.99-1.43zM30.28 6.602l.716-4.97L32 1.416c.398.415 2.875 4 2.92 4.151l-1.036.196-.64-.898c-.234.033-.461.086-.687.14l-.24.056-.298.064c-.316.066-.472.099-.556.194-.082.094-.096.246-.124.548-.013.14-.029.312-.055.525l-1.005.212zM2.61 27.723c-.322-.007-.703-.122-1.08-.236-.299-.09-.594-.18-.854-.213l-.254.912 4.539 1.2.278-.922-1.976-.524c.199-.504.992-.607 1.686-.697.252-.033.491-.065.684-.113l.28-1.054c-.884.097-2.196.294-2.8.85-.22-.517-.495-.652-.726-.766-.296-.146-.52-.256-.46-1.086l-.626-.192c-.389.587-.185 1.207.27 1.648.119.116.257.21.394.302.321.218.632.428.645.892zm57.743-20.91l-.916-.278 1.409-4.458.914.252-.582 1.924c.513.029.758-.3 1.008-.637.09-.121.181-.243.285-.35.497-.508.88-.452 1.683-.233l-.208.671c-.714-.121-.744-.088-1.096.355-.437.55-.5.574-.588.608a.671.671 0 00-.227.146c.481.567.78 2.1.768 2.834l-1.006-.34c-.009-.057-.018-.144-.03-.252-.065-.602-.201-1.859-.792-2.132l-.621 1.89zM6.98 46.787l-1.032.718-.65-.91c-.165-.233-.066-.544.188-.736.328-.249.694-.169.909.126l.585.802zm-2.47.176a57.509 57.509 0 011.261 1.836l3.964-2.681-.562-.764-1.522.955-.855-1.155c-.237-.32-.64-.44-1.07-.425-.485.017-.982.356-1.174.61-.36.477-.392 1.14-.042 1.624zm22.547-43.39c-.084.027-.163.053-.234.073.031.31.238 1.003.406 1.227.611-.105 1.563-.342 1.372-1.077-.17-.66-.972-.405-1.544-.222zM27.02 7.64l-1.387-4.494c.29-.064.608-.17.936-.28 1.089-.364 2.277-.762 2.834.257.365.667.313 1.443-.2 1.866-.319.263-.672.358-1.015.45-.26.07-.513.138-.742.277l.483 1.672-.91.252zm59.687 25.947l.231-.9a2.67 2.67 0 00-.179-.073c-.383-.144-.958-.36-.86-1.162.08-.653.647-.913 1.35-.983 2.34-.231 2.28 1.742 1.166 2.063.052.318.13.679.29.923 1.97-.435 1.842-4.264-1.422-3.992-2.934.245-2.918 3.731-.576 4.124zm-83.56-2.494l.363-.894c2.16.445 1.985 4.142-1.039 4.031-3.403-.124-2.863-4.022-.947-4.107l.157.897a1.52 1.52 0 01-.31.16c-.141.057-.242.097-.368.305-.397.654-.15 1.71 1.468 1.752 1.868.048 2.253-1.586.675-2.144zm.182 7.425c-1.53.462-2.197-.438-1.981-1.23.072-.265.294-.47.512-.67l.002-.002-.437-.804c-1.878.857-1.059 4.514 2.17 3.658 2.974-.788 1.82-4.468-.257-4.133l-.053.945c.724.049 1.29.313 1.256 1.095-.03.676-.622.962-1.212 1.14zm54.665-34.05l.88.482c-.84 2.064-4.521 1.278-3.89-1.697.639-3.012 4.194-2.34 4.26-.252l-.897.039a.83.83 0 01-.075-.156c-.134-.323-.399-.962-1.28-.807-.617.108-.885.678-1.02 1.327-.437 2.106 1.567 2.362 2.022 1.065zm-9.535-1.436l-.085 1.85.963.053.262-4.698-.975-.049-.103 2.014c-.437.248-1.425.352-1.7-.107-.147-.247-.106-.688-.065-1.122.032-.336.063-.666.005-.898l-.923-.039-.027.275c-.084.806-.202 1.948.252 2.401.657.656 1.482.498 2.396.32zM2.79 44.025l1.686-2.023-2.516.153-.447-.9 4.096-.073c.918-.016 1.508.158 1.686 1.235l-.661.31c-.363-.951-.894-.949-1.284-.464l-2.136 2.661-.424-.9zm86.082-7.996l-3.899-.67-.149.96 3.871.674-.24 1.376.807.123.624-3.668-.775-.152-.24 1.357zM12.424 16.216L9.356 12.67l.63-.552 1.822-1.498.512.619-1.674 1.387c.072.177.759.927 1.111 1.312l.157.171 1.267 1.49-.756.616zm9.35-11.547l1.767 4.352.906-.336-1.451-3.588 2.034-.846c-.028-.256-.12-.552-.291-.738L21.775 4.67zm46.832 45c-.365.181-.724.36-1.25.204-.044-.47.744-.88 1.397-1.22.252-.132.484-.253.64-.362.465-.328.749-.809.988-1.215.226-.383.413-.7.675-.758.246.588-.026 1.01-.303 1.396-.465.648-1.151 1.51-1.897 1.837a5.789 5.789 0 00-.25.119zM49.23 39.866c.426-.007.832-.573 1.157-1.026l.035-.049c.18-.25.15-.446.11-.722l-.021-.152c-.008-.06-.014-.116-.019-.166-.037-.348-.05-.469-.45-.57-.352-.088-.642-.11-.816.138-.095.135-.425.634-.442.763-.04.297.092.406.226.518.079.065.158.13.206.236.067.146.047.377.028.607-.013.15-.025.298-.014.423zm16.628-3.413c-.052.009-1.401-.142-1.433-.152l-.02-.097c.016-.262.34-.476.672-.694.181-.12.364-.24.5-.372.567-.546 1.26-.002 1.266.736-.192.195-.58.512-.985.58zm5.768 3.327l.001-.017c.004-.02.025-.038.128-.128l.064-.055c.44-.382.425-1.234.319-1.597-.217-.063-1.032-.06-1.182-.029-.326.56-.135 1.28.023 1.88.02.075.04.148.057.22l.52-.044c.07-.152.07-.202.07-.23zM55.79 13.258c.14-.076.296-.16.708-.096.168.617-.117.808-.725.89-2.238.297-1.94-1.192-.704-.781.433.143.568.07.72-.013zM22.656 28.097l.554.046c.046.07.07.136.092.193.063.165.094.248.512.098.106-.256.198-.794.087-.994-.069-.076-.162-.076-.309-.075-.048 0-.103 0-.163-.002a4.62 4.62 0 01-.311-.026c-.07-.007-.14-.014-.216-.02-.057-.073-.092-.14-.128-.21-.032-.058-.063-.119-.109-.185-.402-.024-.688.187-.605.547.042.184.11.208.212.245a.927.927 0 01.12.05c.188.099.188.1.174.118-.013.019-.038.054.09.215zm43.65 1.338l-.94-.112c.032-.166.102-.279.184-.41.036-.058.075-.12.113-.19.081-.151.094-.27.105-.362.015-.141.023-.216.262-.237.564-.05.411.67.314 1.124-.015.07-.028.134-.037.187zm-.753.894c.222.128.61.217.838.027.104-.087.267-.542.282-.676a31.614 31.614 0 01-.109-.018h-.001c-.666-.109-1.18-.193-1.01.667zm-1.1.533a1.758 1.758 0 01-.222-.668l.729-.233c.005.084.013.17.02.257.03.313.058.638-.02.904-.34.045-.354.02-.477-.206a9.572 9.572 0 00-.03-.054zm-.983.782l.672-.015-.102-.712h-.644l.074.727zM43.4 13.472l-.41-.2c0-.346.03-.422.288-.506l.027-.009c.168-.055.36-.118.496-.106l.018.053c.08.243.09.273-.1.435-.088.075-.097.062-.102.055l-.002-.002c-.006-.002-.022.018-.133.17l-.082.11zM24.078 28.531c.213.364.23.36.344.34.026-.005.058-.01.1-.013a6.553 6.553 0 01-.01-.114c-.015-.204-.018-.256-.187-.401l-.088.017c-.039.007-.06.01-.074.021-.018.013-.028.034-.05.08l-.035.07zm1.791 25.834c.796.47 6.417 2.455 7.38 2.302-.081-.1-.663-.44-1.163-.733-.287-.168-.548-.32-.67-.402a30.818 30.818 0 01-1.701-1.204c-.816-.621-.989-.887-1.203-.926-.132-.024-.279.037-.6.155-.113.042-.248.09-.395.141-.56.198-1.286.455-1.648.667zm35.221-.785c-.24.194-.521.42-.68.609l.418-.03c1.008-.073 2.063-.15 3.007.212.252.096.625-.07.81-.252a37.47 37.47 0 01-1.374-.5c-.318-.12-.639-.242-.958-.356-.598-.214-.607-.206-.895.044a7.328 7.328 0 01-.328.273zm-31.119-.731l-.336.162c.543.543 3.409 2.583 4.376 2.87l.057-1.443c.172.059.279.184.424.353.305.355.777.907 2.37 1.45.35.12.533.262.679.375.233.181.372.289.947.113.43-.132 1.18-.53 1.503-.772-.1-.12-.21-.223-.323-.33-.066-.061-.134-.125-.202-.194-1.246-1.264-2.182-2.668-3.111-4.203-1.478.194-4.377.983-5.963 1.49l-.188.057c-.074.022-.148.044-.233.072zm22.057.273l-1.488 1.896c.877.033 2.035-.322 2.813-.57.163-.052.31-.102.446-.148.827-.281 1.233-.42 2.278.012.425.175.868.325 1.37.368.578.05.754-.085 1.047-.31a7.11 7.11 0 01.356-.26c.484-.34 1.553-1.09 1.73-1.413l-.124-.035c-1.596-.45-5.725-1.617-7.088-1.634-.142.182-.306.47-.454.73-.068.12-.133.235-.191.33-.22.36-.438.682-.695 1.034zm-3.443.839c.136.26.311.595.773.803.137-.081.142-.086.282-.227h.001c.077-.077.112-.119.177-.196l.018-.021.054-.064c.112-.133.18-.215.331-.381.438-.483 2.035-2.654 2.074-3.04-6.294-.733-8.518-.62-14.889.192.112.507 1.928 2.904 2.48 3.434l.172.163c.265.25.597.562.775.806.235-.066.461-.184.697-.307.358-.186.738-.384 1.203-.426.322-.028.709.08 1.145.2 1.072.298 2.439.678 3.856-.674l.142-.14c.16-.162.326-.328.514-.422.074.068.13.175.195.3zm17.883-6.729c-1.322 2.2-2.318 3.314-3.942 5.064.376.175.813.326 1.244.474.263.09.523.18.765.273.908.352 1.162.51 1.4.488.147-.014.287-.096.571-.245 2.7-1.407 4.31-2.428 6.622-4.304.957-.777 1.388-1.233 1.933-1.81.235-.249.49-.52.82-.848-.38-.218-6.01-1.76-6.552-1.756-.429.51-.43.711-.432.858 0 .114-.001.195-.205.364-.308.255-.584.318-.854.38-.431.1-.85.197-1.37 1.062zm-44.633-3.018c-.782.046-7.4 1.828-7.728 2.089.793.953 1.822 1.898 2.847 2.738 2.174 1.783 4.213 3.103 6.816 4.386.525.259.727.363.922.351.208-.013.407-.158.981-.388.167-.068.38-.145.609-.227.502-.181 1.073-.388 1.369-.567l-.22-.272a5.697 5.697 0 00-.115-.113 8.01 8.01 0 01-.094-.092l-1.302-1.395c-1.12-1.356-2.01-2.596-2.893-4.161l-1.192-2.349zm8.3 6.371c.123.267.197.63.09.86-.496.17-1.56-.699-2.03-1.083l-.14-.113c-.134-.107-.25-.195-.351-.272-.598-.455-.704-.535-1.096-1.67-.146-.422-.268-.514-.38-.596-.102-.077-.195-.147-.288-.465a7.408 7.408 0 01-.202-.983c-.031-.205-.055-.362-.095-.453-.064-.15-.164-.259-.28-.384a2.463 2.463 0 01-.441-.618c-.268-.542-.26-.58-.177-.972.017-.08.037-.177.06-.297l-1.979.437c.8 2.266 2.689 4.707 4.135 6.468l.87.928.111.112c.255.256.487.489.808.734l3.491-1.043 3.57-.861c-.052-.24-.34-.826-.58-1.318a19.64 19.64 0 01-.283-.592c-.739-1.672-1.65-4.395-1.952-6.164l-3.395.482c-.058.358-.07.617-.08.82-.023.465-.031.638-.544 1.051-.276.223-.328.349-.452.794-.042.151-.108.31-.168.453-.066.156-.124.295-.133.384.09.07.18.105.262.138.146.058.265.105.306.31.054.265-.08.434-.217.609-.242.308-.498.633.221 1.535.217.272.263.453.304.613.053.207.096.379.49.667.054.04.108.076.159.11.164.11.304.203.386.379zm33.132-6.189a3.762 3.762 0 01-.123-.165c-.527-.004-.738.15-.98.327-.328.24-.712.522-2.022.506-.746-.009-1.052-.123-1.072-.902-.01-.343 0-.589.117-.89.02-.05.041-.098.062-.144.072-.163.138-.314.119-.53-.198-.021-.48-.065-.792-.113-.715-.11-1.587-.244-1.957-.193-.129.37-.227.794-.324 1.212-.075.322-.149.641-.235.93-.452 1.511-.765 2.418-1.374 3.879-.109.26-.239.526-.367.79-.165.34-.329.674-.441.986.54.17 1.288.304 2.024.437.54.097 1.072.193 1.512.3 1.157.284 2.198.577 3.318.908.481.143.663.199.801.144.134-.053.227-.212.509-.498.834-.844 2.41-2.553 2.843-3.487-.296-.155-.31-.355-.33-.608-.012-.153-.025-.324-.1-.518-.254-.645-.51-.631-.746-.619a1.053 1.053 0 01-.156 0c-.15-.385-.15-.565-.142-1.022.01-.531-.003-.548-.144-.73zM52.654 41.89c-2.246-.199-4.709-.416-6.498-.302-.589 1.056-.905 1.148-1.21 1.236-.188.055-.373.108-.614.39-.315.367-.608.616-1.028.084a4.07 4.07 0 01-.36-.587c-.3-.556-.61-1.13-1.397-1.107-.565.017-1.098.044-1.663.072-.998.051-4.63.276-5.674.433-.285.043-.278.067-.216.293.011.04.024.085.037.138.227.916.466 1.812.76 2.703.295.898.594 1.694.935 2.523.15.367.343.754.532 1.133.217.436.429.862.566 1.234.379-.015.84-.095 1.275-.17.222-.038.438-.075.633-.102a49.772 49.772 0 0110.144-.343c.613.041 1.445.14 2.206.229.723.085 1.383.163 1.733.178.44-.513 1.334-2.834 1.634-3.645.4-1.085 1.022-2.954 1.179-4.157-.878-.048-1.901-.139-2.974-.233zm-31.629-4.914c-.08-.087-.154-.17-.233-.238.1 1.977.988 4.59 1.617 6.295.305-.012.798-.124 1.198-.216l.332-.074c.258-.055.462-.09.622-.117.524-.089.583-.099.578-.472-.218-.193-.388-.196-.563-.199a.866.866 0 01-.397-.076c-.18-.087-.22-.26-.267-.454a1.413 1.413 0 00-.134-.385c-.065-.114-.134-.167-.201-.219-.116-.089-.221-.17-.275-.545-.028-.193-.026-.387-.025-.58a4.112 4.112 0 00-.022-.56 2.45 2.45 0 00-.41-.124c-.209-.052-.426-.105-.523-.18-.164-.126-.17-.312-.174-.51-.004-.14-.008-.285-.069-.418-.06-.132-.315-.309-.515-.448-.064-.045-.122-.085-.167-.12a2.732 2.732 0 01-.372-.36zm45.983 1.51c.069.229.134.447.181.568.235-.014.412-.125.595-.239a2.67 2.67 0 01.276-.158 5.59 5.59 0 01.434-.186 1.84 1.84 0 01.148-.049c.115-.034.166-.049.237-.192.088-.178.307-1.877.288-2.127-.101-.05-.204-.088-.306-.127-.452-.169-.876-.328-.993-1.402-1.985-.035-3.992-.024-5.992-.013-.972.005-1.941.01-2.906.01-.951 0-1.278-.057-1.39.072-.086.1-.045.308-.061.736a35.62 35.62 0 01-.15 2.063c-.047.486-.205 1.556-.337 2.45a36.489 36.489 0 00-.197 1.413l2.135.25c.065-.083.126-.166.187-.248.354-.473.683-.913 1.427-1.205.453-.178.617-.207.744-.229.203-.035.314-.055 1.36-.639.334-.185.603-.367.834-.524.466-.314.776-.524 1.14-.448.589.124.618.092.791-.1.054-.06.122-.134.225-.225.292-.256.598-.382 1.045-.275.068.103.18.476.285.824zm-46.261-2.618a.239.239 0 00.016.03c.127-.376.244-.809.194-1.314l-.34-.005.03 1.01.08.252c.003-.007.011.01.02.027zm35.796-1.296l-8.537.008c-.031.442.038.841.107 1.237.038.22.076.439.097.663.048.536-.005.61-.138.792-.099.136-.241.333-.418.824-.234.65-.54.671-.78.688-.187.013-.334.024-.378.325-.064.452.088.516.261.59.203.085.433.183.381.92 1.476.016 2.968.108 4.43.2.527.034 1.11.096 1.701.16.906.097 1.827.196 2.58.193.224-1.25.925-5.458.694-6.6zm-36.947 0l-10.858.017c-.088 1.681.99 4.78 1.604 6.128.419.92.891 1.74 1.4 2.54.346.541 1.256 1.884 1.657 2.196.832-.2 1.798-.485 2.805-.783 1.05-.31 2.145-.633 3.18-.887.112-.027.278-.065.469-.107.564-.127 1.343-.3 1.575-.416-.057-.31-.222-.757-.383-1.19-.104-.282-.207-.559-.277-.79a28.088 28.088 0 01-.54-2.08c-.287-1.306-.376-2.306-.45-3.14-.05-.555-.092-1.036-.182-1.488zm51.235-.017c-.404-.02-.524-.026-.554.2.16.064.437.054.726.042.564-.021 1.177-.045 1.083.48a1.145 1.145 0 01-.167.384c-.095.16-.189.318-.173.542.012.182.084.279.16.381.08.11.166.225.186.456-.177.248-.505.57-.97.294-.2-.118-.81-.414-1.055-.421-.08.66-.18 1.29-.309 1.918-.021.106-.07.297-.126.516-.124.486-.283 1.111-.268 1.27.023.226.23.643.413 1.012.103.207.199.4.25.534.08.214.072.37.064.508-.008.149-.016.279.09.442.059.093.11.144.15.184.092.092.127.127.078.462l6.194 1.724c.567-.593 1.191-1.496 1.685-2.266 1.342-2.092 3.12-6.228 2.975-8.627-.45-.055-5.287-.035-8.09-.024-.802.003-1.437.006-1.756.006-.242 0-.434-.01-.586-.017zm-38.797.03c-.426-.034-2.537-.083-2.777.031.09.1.096.152.125.179.033.03.093.029.33.027.081 0 .17-.004.262-.01.49-.024 1.093-.055 1.271.49.204.622-.08 1.79-.267 2.56a8.276 8.276 0 00-.132.595c-.046.31-.248.91-.4 1.174-.051.089-.107.168-.162.246-.124.175-.244.344-.298.613-.052.257-.076.644-.097.97l-.015.225 2.893-.376c-.016-.302-.086-.672-.155-1.034-.038-.201-.076-.4-.104-.582-.163-1.076-.23-2.113-.29-3.05-.05-.764-.094-1.462-.184-2.058zm7.823 6.145c.477-.022.956-.044 1.44-.07.139-.973-.37-2.567-.825-3.106-.462-.545-.452-.627-.43-.816.014-.125.034-.297-.075-.683l-.008-.029c-.085-.3-.13-.459-.048-.837.033-.152.095-.259.156-.363.047-.08.092-.158.123-.254l-7.176.021c-.049 1.778.264 3.719.551 5.505.06.369.118.73.172 1.084.705-.025 1.453-.103 2.2-.18a49.093 49.093 0 011.557-.144c.795-.056 1.577-.092 2.363-.128zm29.445-6.16l-.556.01.09.057c.136.09.273.18.485.172l-.02-.238zM20.599 31.69c-.032.643-.063 1.262-.043 1.916.086 0 .165.003.237.005.35.01.556.016.735-.27.167-.267-.047-1.69-.225-1.856-.152-.141-.49-.347-.677-.358l-.027.563zm32.47-5.212l-1.608.1.17.66c-.111.103-.145.14-.184.172-.037.03-.078.053-.189.117-.4.23-.61.475-.796.693-.375.438-.66.772-2.215.673-.456-.029-.518-.145-.664-.419a7.781 7.781 0 00-.06-.111c-.558-1.003-1.026-1.587-2.194-1.559.073.11.272.275.5.465.36.299.793.659.928.962.078.173.09.318.1.44.02.222.032.372.41.496.094.03.196.047.294.064.099.016.193.032.272.06.197.07.203.091.217.142.01.039.026.094.132.199.186.002.312-.02.428-.04.179-.03.333-.058.638.014l.14.031c.255.056.497.108.664.278.098.2.021.337-.096.544-.15.269-.369.657-.362 1.462.005.553-.02.58-.116.679-.048.05-.113.117-.201.277-.24.434-.313.469-.38.5-.05.025-.095.046-.202.228l7.931-.002-.18-4.084c-.115.027-.157.063-.2.1-.05.043-.102.088-.272.125-.07.016-.143.024-.215.032-.134.014-.264.028-.367.091-.133.082-.197.213-.263.348-.081.164-.164.333-.378.426-.32-.223-.595-1.776-.678-2.262-.128-.751-.305-.945-.52-1.18-.144-.16-.307-.338-.483-.72zm-15.795 5.874c-.171.005-.349.01-.527-.014-.103-.294-.094-.374-.13-.412-.037-.039-.123-.032-.436-.172-1.165-.524-.813-1.155-.525-1.671.106-.19.203-.364.214-.512a4.13 4.13 0 00-.034-.732c-.052-.487-.097-.915.282-1.238.114-.097.256-.186.402-.279.1-.063.202-.128.298-.197.168-.12.254-.207.35-.302.062-.063.128-.13.223-.21a.241.241 0 00-.049-.027l-3.739-.392c-.49 2.133-.615 5.119-.615 7.41l7.154-.024c-.173-.484-.658-.97-1.299-1.038a30.213 30.213 0 00-.292-.029c-.286-.027-.312-.03-.708-.13-.174-.043-.367-.038-.569-.031zM19.35 27.42c-.152 1 .016 1.258.48 1.86.053-.084.625-2.844.69-3.173-.767.098-1.055.55-1.17 1.312zm3.289-.871c-.05.048-.07.069-.18.096-.264-.252-.239-.3-.18-.41.034-.065.08-.15.086-.311-.222-.155-.338-.22-.667-.226-.407.587-.977 4.218-1.034 5.178.925.047 1.407.355 1.75.573.258.166.437.28.667.192.205-.131.286-.303.361-.461.106-.224.2-.419.607-.431.405-.013 1.197.092 1.515.299l-.056.65c.308.009.532-.045.754-.098.319-.077.633-.152 1.183-.042.573.115.551.482.525.925-.013.231-.028.483.04.731.13.482.891.438 1.477.405.137-.008.264-.015.371-.015h.878c.43-.001.858-.002 1.287-.001 0-1.31.036-2.623.152-3.913.057-.642.124-1.266.202-1.869.019-.148.05-.338.085-.54.073-.438.157-.936.144-1.212a130.01 130.01 0 01-4.671-.664c-.634-.105-1.287-.238-1.94-.37-.852-.174-1.704-.348-2.512-.459-.243.64-.219.986-.198 1.279.017.255.032.469-.135.8-.126-.003-.175-.004-.206-.028-.037-.03-.048-.092-.14-.235l-.104.1c-.026.022-.045.041-.061.057zm44.673-2.206l-2.214.439c.02.277.098.44.172.594.078.164.152.32.152.595-.091.065-.206.086-.316.107a.963.963 0 00-.226.061c-.03.22.022.325.075.43.05.102.1.205.08.413a7.71 7.71 0 00-.025.441c-.009.235-.017.471-.046.593-.086-.01-.14-.028-.185-.044a.328.328 0 00-.233-.012.43.43 0 00-.18.089c-.052.04-.103.08-.277.104-.24.033-.412-.032-.565-.088-.166-.062-.307-.115-.484-.022-.1.157-.082.372-.061.61.017.198.035.411-.012.62-.287.119-.512.085-.753.049-.184-.028-.378-.057-.616-.02-.08.07-.15.154-.22.238-.12.143-.239.285-.402.356-.382-.114-.44-.388-.52-.758-.023-.111-.049-.23-.085-.357-.108-.374-.276-.497-.48-.647a2.49 2.49 0 01-.288-.237c-.44-.433-.588-.492-.71-.54a.723.723 0 01-.252-.157c-.168-.15-.223-.427-.278-.704-.038-.193-.076-.387-.153-.537-.288 0-.341.09-.433.247-.037.063-.08.137-.148.22-.12.148-.204.206-.305.276-.062.044-.131.092-.22.168.076.877.148 1.537.212 2.12.149 1.367.252 2.311.252 4.615l3.96-.019c-.18-.349-.45-.625-.692-.874-.48-.492-.854-.875-.215-1.494.366-.354.877-.812 1 .05.166 1.166.203 1.185.6 1.39.115.06.262.135.452.26.462.305.581.425.667.405.095-.022.149-.218.585-.53a1.6 1.6 0 01.36-.172c.127-.049.262-.1.393-.181.36-.222.478-.494.591-.756.084-.194.165-.383.34-.54.46.024.606.487.666.996.11.944-.138.843-.355.755-.073-.03-.141-.058-.193-.046l-.125.754 3.747-.013c0-1.402-.075-2.738-.275-4.112-.102-.705-.503-3.021-.768-3.496-.27.337-.14.745-.012 1.151.144.454.287.905-.126 1.252-.113-.14-.209-.337-.303-.532-.105-.218-.208-.432-.331-.556-.124-.123-.272-.172-.424-.223-.208-.069-.424-.14-.592-.411.005-.356.22-.587.416-.798.061-.066.121-.13.172-.195.25-.322.234-.702.212-1.18a18.387 18.387 0 01-.006-.147zM17.106 25.9c-.169.828-.365 1.787-1.136 1.64-.181-.307-.113-.561-.02-.91l.039-.147c.047-.185.077-.375.108-.566.031-.195.063-.392.113-.588l.064-.249c.231-.9.269-1.046.228-2.222l-3.656-1.082c-.429.376-1.28 1.763-1.626 2.364-1.693 2.944-2.545 5.846-2.548 9.466l10.893-.003.129-3.045c-.642-.032-1.339-.17-1.579-.66a1.034 1.034 0 01-.117-.573c.008-.232.016-.46-.421-1.03-.47-.613-.34-.83-.154-1.143a2.13 2.13 0 00.2-.408c.156-.451.2-1.58-.075-1.953-.234.094-.332.575-.441 1.109zm53.508-2.359c-.56.142-1.134.287-1.734.443.047.175.059.317.07.464.016.192.032.392.128.683.872 2.642 1.236 5.691 1.236 8.475l11.014-.003c0-2.528-.409-4.681-1.26-6.81-.602-1.508-1.85-3.883-2.912-5.047-.317.03-.951.239-1.476.412-.219.071-.419.137-.569.18-1.593.467-3 .824-4.497 1.203zm-5.424-4.447c-.018-.014-.043-.016-.132-.037-.127.401.077.624.335.906.194.211.417.455.555.83.133.363.3.593.44.783.242.334.399.549.135 1.151-.325.067-.465-.004-.6-.073a.637.637 0 00-.472-.077c-.082.24-.091.534-.1.83-.004.116-.008.231-.016.345.273-.026.527-.085.789-.146l.242-.055c.104-.023.203-.039.293-.054.278-.046.486-.08.6-.255.143-.212-.577-1.555-.852-2.069l-.076-.142-1.06-1.843c-.054-.059-.064-.081-.081-.094zm-24.755.099c-.494.335-1.383.31-1.96.167.047-.297.186-.384.346-.483.159-.099.338-.21.463-.557.098-.271.26-.46.426-.652.108-.126.218-.254.313-.408a.31.31 0 00-.045-.024l-.768-.134a43.468 43.468 0 01-.846-.116c-.16-.023-.345-.056-.538-.09-.395-.071-.82-.148-1.123-.155-.88 1.203-3.039 7.55-2.873 8.517l4.256.341c.052-.044.103-.09.155-.136.264-.238.536-.483 1.03-.515.262-.016 1.664.41 2.062.544.104.035.207.09.302.14.102.055.194.105.27.119.11.02.273.01.443 0 .153-.01.312-.02.443-.008.208.02.362.036.487.05.434.045.521.054 1.308.032.003-.006.003-.016.003-.023v-.006c.037-.191.077-.22.176-.288.052-.036.12-.083.212-.17-.136-.486-.104-.527-.056-.588.035-.046.079-.102.07-.36l-.868-.307-.026-.443c-.43.11-.586.248-.71.357-.115.102-.202.18-.46.188-.313-.299-.347-.642-.376-.932-.029-.289-.052-.524-.34-.607-.123.294-.148.663-.148 1.045 0 .69.156.817.28.918.08.064.145.118.148.303-.574.23-.667-.096-.775-.475-.05-.174-.102-.358-.205-.506a3.73 3.73 0 01-.128-.199c-.126-.207-.215-.352-.531-.467-.17.183-.217.345-.256.478-.07.238-.11.381-.784.372-.342-.005-.532.115-.708.226-.196.125-.376.238-.73.16-.225-.279-.2-.404-.166-.577.025-.127.055-.281-.005-.54a8.246 8.246 0 00-.11-.404c-.093-.32-.196-.675-.19-.877.02-.67.921-.715 1.645-.75.215-.011.415-.021.571-.047.01-.095.013-.184.017-.269.01-.235.018-.434.138-.62.195-.155.554-.177.872-.196.294-.018.552-.034.61-.152.036-.072.029-.131.022-.182-.013-.109-.022-.184.388-.282.173-.042.374-.077.582-.113.598-.105 1.262-.22 1.53-.534.267-.309.415-.917.306-1.47-.65-.003-.796.316-.925.597-.082.178-.157.342-.347.4-.265.083-.358-.014-.462-.123a.541.541 0 00-.29-.186c-.115-.026-.277.015-.434.055-.197.05-.386.097-.463.01-.09-.233-.041-.38.014-.55.031-.098.066-.203.076-.336l-.793-.054c.136.63-.078 1.589-.525 1.892zm-22.717.825c.266-.043.581-.093.879-.614-.092-.152-.273-.239-.45-.324-.374-.18-.728-.351-.158-1.101.083-.108.164-.202.24-.29.32-.371.55-.637.406-1.453-.317.156-.687.462-1.021.738-.137.113-.267.221-.386.312-.809.62-3.287 2.863-3.717 3.676l2.861.84.328-.343c.399-.313.402-.457.406-.65.003-.125.006-.269.113-.49.117-.24.293-.268.5-.301zm17.328-2.003c.242-.559.44-1.015.509-1.247-.779.22-1.076.517-1.301.74-.19.19-.328.327-.661.321-.719-.012-.74-.281-.777-.755l-.001-.021c-.037-.463.072-.62.197-.802.056-.08.115-.165.165-.284l-1.245-.325c-.009.012-.017.03-.023.042a.357.357 0 01-.005.008c-.259.506-.341.493-.71.434-.177-.029-.423-.068-.787-.064-.348.003-.572.098-.756.302-.092.102-.155.188-.176.305-.083.45.262.393.655.328.355-.06.749-.125.902.173.043.395-.067.564-.316.742-.069.05-.126.088-.179.122-.123.082-.218.144-.37.297-.333.336-.236.503-.109.724.088.151.19.328.179.6-.135.13-.243.186-.353.242-.139.071-.28.143-.479.369-.293.333-.414.333-.57.334a.837.837 0 00-.436.106c-.108.172-.124.334-.141.5-.024.229-.048.466-.32.748-.38.014-.508-.145-.64-.307-.11-.137-.224-.276-.493-.31-.083-.01-1.122.319-1.268.382-.317.134-.564.595-.733.93a9.848 9.848 0 01-.426.745c-.061.099-.121.196-.18.297.549.296 7.528 1.37 8.563 1.408.157-.26.308-.999.43-1.596.051-.25.097-.474.136-.63.182-.717.406-1.421.636-2.133.28-.869.729-1.906 1.083-2.725zm16.66-3.315l-.074-.075c-.018.101-.04.194-.061.282-.07.29-.128.532.021.878.353.109.486-.017.649-.17l.007-.008c-.076-.224-.38-.712-.543-.907zm-25.662 3.507c-.081.139-.142.243.023.483.31-.01.804-.469 1.04-.687l.054-.05c.352-.323.372-.523.395-.76.015-.157.032-.33.147-.565.123-.25.21-.311.31-.38.122-.086.263-.184.511-.665.195-.378.476-.422.764-.468.158-.025.319-.05.469-.132l-1.007-.31c-.356.347-.433.432-.527.49-.091.054-.198.082-.586.294-.213.117-.225.186-.236.258-.01.063-.022.13-.172.233a.347.347 0 01-.127.063c-.033.009-.054.014-.165.127-.265.273-.914.952-.825 1.264.133.46.02.653-.068.805zM64.134 14c-.196.072-.393.146-.595.222.266.279.867.41 1.501.547.993.215 2.066.447 2.058 1.294-.32.29-.666.261-1.032.23-.23-.02-.47-.041-.715.018a.529.529 0 00.118.412c.05.07.103.143.13.278.035.166.004.298-.03.442-.026.11-.054.226-.056.37.164.247.417.576.644.694.175.091.358.107.536.122.17.015.334.03.481.108.429.231.658 1.169.638 1.871l-.61-.053c.047.157 1.065 2.36 1.172 2.526 1.025-.067 6.812-1.746 8.084-2.16-.254-.473-2.502-2.734-2.97-2.986a10.13 10.13 0 00-.018.351c-.016.455-.03.833-.316 1.104-.585.046-.832-.667-1.029-1.236a7.793 7.793 0 00-.114-.316c-.402-1.016-.531-.963-.854-.83-.164.068-.38.157-.708.134-.246-.157-.309-.339-.368-.512-.051-.148-.1-.29-.258-.405-.101-.073-.278-.116-.493-.168-.45-.11-1.068-.26-1.497-.815-.212-.272-.287-.653-.364-1.039l-.008-.042c-.099-.495-.17-.526-.452-.654-.077-.034-.169-.075-.281-.135-.438-.231-.49-.208-.818-.064a7.833 7.833 0 01-.219.093c-.535.218-1.04.406-1.558.599zm-39.795-.713c.003.01.675 1.08 1.6.376l-.18-.12a.664.664 0 00-.03-.015l-.017-.008-.639-.26c-.025-.01-.057-.025-.093-.043-.257-.12-.747-.352-.641.07zm18.04-3.315c-.173.123-.367.26-.606.423.067-.036.137-.082.21-.13.259-.17.556-.365.9-.225-.006.236-.24.464-.484.703-.34.333-.703.687-.51 1.113.15.083.396.11.663.137.323.034.678.072.933.218-.089.173-1.9 1.004-2.066 1.051-.908.258-.854.421-.735.778.069.207.159.477.098.868-.272.157-.375.14-.402.178-.026.036.018.122.05.46-.226.015-.454-.026-.68-.067-.347-.062-.688-.124-1.005.02-.481.218-.656.186-.842.153-.117-.021-.239-.043-.444-.004-.166.031-.197.013-.201.017-.004.005.016.031-.034.142.375.199 4.49.62 5.148.611.221-.344.224-.482.225-.574.002-.079.003-.123.143-.234.133-.1.232-.087.342-.075.1.012.208.025.357-.044.144-.067.167-.13.19-.193.026-.073.052-.144.266-.217.103.073.128.079.138.094.012.018.004.05.073.217a.789.789 0 01.042.121c.01.035.012.045.081.14.314-.007.365-.167.423-.352.094-.296.208-.656 1.448-.563.793.059 1.503.544 1.101 1.329-.185.04-.344.047-.482.054-.317.016-.522.026-.689.402.73.009 2.011-.069 2.657-.282.554-.184 1.282-.94 1.111-1.688-.044-.021-.019-.028-.02-.032 0-.003-.023-.003-.145-.01-.365-.018-.49.222-.634.499-.169.326-.364.703-1.01.77-.045-.316.198-.598.45-.89.278-.323.568-.66.5-1.072-.196-1.185.525-.878 1.155-.61.146.061.286.12.41.16l-.05.71c.209.141.43.183.656.226.124.023.249.047.373.087-.173-.466-1.515-2.033-1.847-2.39a13.431 13.431 0 00-3.647-2.783l-.178-.094c-.432-.233-.916-.493-1.41-.282-1.078.461-1.418.702-2.022 1.13zm22.68 2.656c-.61-.64-7.376-2.806-8.88-2.973.059.053.291.188.639.388 1.159.67 3.598 2.077 5.113 3.68.538-.078 1.348-.403 2.077-.696.392-.157.76-.305 1.05-.4zm-37.465.455a2.721 2.721 0 00-.4-.005c.105.017.252.08.405.145.215.091.443.188.596.177.15-.011.483-.312.673-.483.037-.033.068-.062.092-.082.942-.815 2.03-1.573 3.105-2.22.21-.127.457-.26.707-.394.34-.183.685-.369.952-.546-1.03.127-3.528.886-4.653 1.266-.152.052-.318.114-.488.178-.334.127-.682.258-.968.32.072.18.335.51.457.62.11.102.22.137.332.173.115.038.234.076.36.187-.029.274-.257.515-.519.61-.218.08-.432.067-.65.054zm31.955-.137c-3.794-2.836-7.735-4.52-12.777-4.48l.25.204c1.147.717 2.107 1.377 3.059 2.403a23.794 23.794 0 012.583 3.296c.327.496.336.596.39.646.039.037.101.047.323.162.16.081.259.195.35.3.137.155.257.29.527.272.82-.055 1.654-.365 2.226-.702.868-.512 1.04-.395 1.226-.269a.552.552 0 00.414.118c.205-.018 2.591-.71 2.754-.818-.14-.211-1.047-.924-1.325-1.132zm-24.9 1.181c.2-.194.437-.422.443-.8a9.594 9.594 0 00-.309-.303c-.622-.595-1.115-1.068.687-1.356.433-.07.67-.157.908-.245.174-.064.348-.129.6-.187 1.223-.283 1.415-.013 1.545.171.1.14.162.229.612-.011.18-.096.308-.23.43-.36l.09-.092c1.058-1.068 1.77-1.513 2.355-1.878.3-.188.566-.354.829-.573-.889-.074-3.44.184-4.266.403-2.439.649-4.465 1.577-6.538 2.865-.494.307-.94.633-1.389.963l-1.004.792-.114.087a.495.495 0 00-.176.199c.28.194 1.625.608 2.046.641l.012-.018c.136-.207.35-.533.72-.482a.93.93 0 01.103.516 3.693 3.693 0 000 .242c.32.14 1.714.508 2.035.475.033-.157.041-.277.049-.379.017-.236.027-.375.311-.65l.02-.02zm-21.37 33.54l-1.784-2.113c-.145-.213-.284-.414-.418-.608-1.035-1.5-1.74-2.52-2.537-4.572-4.351-11.199 2.1-21.048 11.07-26.654 11.31-7.068 26.926-8.544 39.716-4.847 4.14 1.196 8.053 2.893 11.23 4.96 2.09 1.36 3.997 2.824 5.61 4.486a29.895 29.895 0 011.895 2.117c.07.084.17.22.282.367.23.305.503.668.63.77.013.055.375.642.744 1.24.317.514.639 1.035.748 1.235 4.405 8.057 2.353 17.267-3.656 23.497l-.296.307c-1.024 1.064-1.472 1.53-2.812 2.603-4.236 3.394-9.033 5.708-14.573 7.278-12.44 3.525-28.29 2.171-39.233-4.719-2.229-1.403-4.87-3.379-6.616-5.347z" fill="#fff"/></svg>