<svg width="112" height="112" viewBox="0 0 112 112" fill="none" xmlns="http://www.w3.org/2000/svg">
<path d="M55.9997 102.667C81.773 102.667 102.666 81.7733 102.666 56C102.666 30.2268 81.773 9.33337 55.9997 9.33337C30.2264 9.33337 9.33301 30.2268 9.33301 56C9.33301 81.7733 30.2264 102.667 55.9997 102.667Z" stroke="#FF9900" stroke-width="4" stroke-linecap="round" stroke-linejoin="round"/>
<path d="M56 84C71.464 84 84 71.464 84 56C84 40.536 71.464 28 56 28C40.536 28 28 40.536 28 56C28 71.464 40.536 84 56 84Z" stroke="#FF9900" stroke-width="4" stroke-linecap="round" stroke-linejoin="round"/>
<path d="M56.0003 65.3333C61.155 65.3333 65.3337 61.1546 65.3337 56C65.3337 50.8453 61.155 46.6666 56.0003 46.6666C50.8457 46.6666 46.667 50.8453 46.667 56C46.667 61.1546 50.8457 65.3333 56.0003 65.3333Z" stroke="#FF9900" stroke-width="4" stroke-linecap="round" stroke-linejoin="round"/>
</svg>
