<svg width="22" height="22" viewBox="0 0 22 22" fill="none" xmlns="http://www.w3.org/2000/svg">
<path d="M12.9836 12.9837C11.3673 14.6514 11.2497 16.7306 11.1102 21.2857C15.3567 21.2857 18.2881 21.271 19.8016 19.8016C21.271 18.2882 21.2857 15.2171 21.2857 11.1102C16.7306 11.2571 14.6514 11.3673 12.9836 12.9837ZM0.714233 11.1102C0.714233 15.2171 0.728927 18.2882 2.19832 19.8016C3.71178 21.271 6.64321 21.2857 10.8897 21.2857C10.7428 16.7306 10.6326 14.6514 9.01627 12.9837C7.34852 11.3673 5.26934 11.2498 0.714233 11.1102ZM10.8897 0.714287C6.65056 0.714287 3.71178 0.728981 2.19832 2.19837C0.728927 3.71184 0.714233 6.78286 0.714233 10.8898C5.26934 10.7429 7.34852 10.6327 9.01627 9.01633C10.6326 7.34857 10.7502 5.26939 10.8897 0.714287ZM12.9836 9.01633C11.3673 7.34857 11.2497 5.26939 11.1102 0.714287C15.3567 0.714287 18.2881 0.728981 19.8016 2.19837C21.271 3.71184 21.2857 6.78286 21.2857 10.8898C16.7306 10.7429 14.6514 10.6327 12.9836 9.01633Z" fill="currentColor"/>
</svg>
