<svg width="12" height="12" viewBox="0 0 12 12" fill="none" xmlns="http://www.w3.org/2000/svg"><g clip-path="url(#prefix__clip0_162_1613)"><path d="M11.5 4.943v4.555c0 1.101-.9 2.002-2 2.002h-7c-1.1 0-2-.901-2-2.002V4.943c0-.901.45-1.702 1.25-2.153L5.3.688c.45-.25 1-.25 1.45 0L10.3 2.79c.75.4 1.2 1.252 1.2 2.153z" fill="#292929"/><path d="M5.99 7.5c-.288 0-.622-.095-.861-.238L2.737 5.879c-.239-.143-.286-.429-.19-.667.095-.19.43-.286.62-.143L5.56 6.45c.24.143.574.143.813 0L8.763 5.07c.24-.143.526-.048.67.19.143.239.047.525-.192.668l-2.39 1.382c-.24.096-.575.191-.862.191z" fill="#F90"/></g><defs><clipPath id="prefix__clip0_162_1613"><path fill="#fff" d="M0 0h12v12H0z"/></clipPath></defs></svg>