<svg width="16" height="16" viewBox="0 0 16 16" fill="none" xmlns="http://www.w3.org/2000/svg">
<g clip-path="url(#clip0_140_1439)">
<path d="M8.00016 14.6667C11.6821 14.6667 14.6668 11.6819 14.6668 8.00004C14.6668 4.31814 11.6821 1.33337 8.00016 1.33337C4.31826 1.33337 1.3335 4.31814 1.3335 8.00004C1.3335 11.6819 4.31826 14.6667 8.00016 14.6667Z" stroke="#FF9900" stroke-linecap="round" stroke-linejoin="round"/>
<path d="M1.3335 8H14.6668" stroke="#FF9900" stroke-linecap="round" stroke-linejoin="round"/>
<path d="M8.00016 1.33337C9.66768 3.15894 10.6153 5.52806 10.6668 8.00004C10.6153 10.472 9.66768 12.8411 8.00016 14.6667C6.33264 12.8411 5.38499 10.472 5.3335 8.00004C5.38499 5.52806 6.33264 3.15894 8.00016 1.33337V1.33337Z" stroke="#FF9900" stroke-linecap="round" stroke-linejoin="round"/>
</g>
<defs>
<clipPath id="clip0_140_1439">
<rect width="16" height="16" fill="white"/>
</clipPath>
</defs>
</svg>
