<svg width="112" height="112" viewBox="0 0 112 112" fill="none" xmlns="http://www.w3.org/2000/svg">
<path d="M79.3337 98V88.6667C79.3337 83.716 77.367 78.968 73.8663 75.4673C70.3656 71.9667 65.6177 70 60.667 70H23.3337C18.383 70 13.635 71.9667 10.1343 75.4673C6.63365 78.968 4.66699 83.716 4.66699 88.6667V98" stroke="#FF9900" stroke-width="4" stroke-linecap="round" stroke-linejoin="round"/>
<path d="M41.9997 51.3333C52.309 51.3333 60.6663 42.976 60.6663 32.6667C60.6663 22.3574 52.309 14 41.9997 14C31.6904 14 23.333 22.3574 23.333 32.6667C23.333 42.976 31.6904 51.3333 41.9997 51.3333Z" stroke="#FF9900" stroke-width="4" stroke-linecap="round" stroke-linejoin="round"/>
<path d="M107.333 98V88.6667C107.33 84.5307 105.953 80.5129 103.419 77.2441C100.885 73.9753 97.3376 71.6406 93.333 70.6067" stroke="#FF9900" stroke-width="4" stroke-linecap="round" stroke-linejoin="round"/>
<path d="M74.667 14.6067C78.6823 15.6347 82.2412 17.9699 84.7826 21.2441C87.3241 24.5183 88.7036 28.5452 88.7036 32.69C88.7036 36.8348 87.3241 40.8617 84.7826 44.1359C82.2412 47.4101 78.6823 49.7453 74.667 50.7733" stroke="#FF9900" stroke-width="4" stroke-linecap="round" stroke-linejoin="round"/>
</svg>
