<svg width="43" height="44" viewBox="0 0 43 44" fill="none" xmlns="http://www.w3.org/2000/svg">
<path d="M12 42H6C4.93913 42 3.92172 41.5786 3.17157 40.8284C2.42143 40.0783 2 39.0609 2 38V24C2 22.9391 2.42143 21.9217 3.17157 21.1716C3.92172 20.4214 4.93913 20 6 20H12M26 16V8C26 6.4087 25.3679 4.88258 24.2426 3.75736C23.1174 2.63214 21.5913 2 20 2L12 20V42H34.56C35.5247 42.0109 36.4608 41.6728 37.1958 41.048C37.9309 40.4232 38.4154 39.5538 38.56 38.6L41.32 20.6C41.407 20.0267 41.3683 19.4414 41.2067 18.8845C41.045 18.3276 40.7642 17.8126 40.3837 17.375C40.0032 16.9375 39.5322 16.5879 39.0031 16.3504C38.4741 16.113 37.8998 15.9934 37.32 16H26Z" stroke="#FF9900" stroke-width="3" stroke-linecap="round" stroke-linejoin="round"/>
</svg>
