<svg width="24" height="24" viewBox="0 0 24 24" fill="none" xmlns="http://www.w3.org/2000/svg">
<path d="M24 17.9041V21.5041C24.0014 21.8383 23.9329 22.1691 23.799 22.4753C23.6651 22.7815 23.4688 23.0564 23.2225 23.2824C22.9762 23.5083 22.6855 23.6803 22.3689 23.7874C22.0523 23.8944 21.7169 23.9342 21.384 23.9041C17.6914 23.5029 14.1444 22.2411 11.028 20.2201C8.12861 18.3777 5.67042 15.9195 3.82802 13.0201C1.79999 9.88956 0.537909 6.32531 0.144017 2.61612C0.11403 2.28428 0.153467 1.94983 0.259818 1.63407C0.366168 1.3183 0.537102 1.02814 0.761737 0.782062C0.986371 0.53598 1.25978 0.339368 1.56457 0.204743C1.86935 0.0701178 2.19883 0.000430118 2.53202 0.000116343H6.13202C6.71438 -0.00561539 7.27897 0.200611 7.72053 0.580356C8.16209 0.9601 8.45051 1.48745 8.53202 2.06412C8.68396 3.2162 8.96576 4.34739 9.37202 5.43612C9.53347 5.86563 9.56841 6.33241 9.4727 6.78117C9.377 7.22993 9.15465 7.64185 8.83202 7.96812L7.30802 9.49212C9.01628 12.4964 11.5038 14.9839 14.508 16.6921L16.032 15.1681C16.3583 14.8455 16.7702 14.6231 17.219 14.5274C17.6677 14.4317 18.1345 14.4667 18.564 14.6281C19.6527 15.0344 20.7839 15.3162 21.936 15.4681C22.5189 15.5504 23.0513 15.844 23.4319 16.2931C23.8124 16.7423 24.0146 17.3156 24 17.9041Z" fill="currentColor"/>
</svg>
