<svg width="22" height="17" viewBox="0 0 22 17" fill="none" xmlns="http://www.w3.org/2000/svg">
<path d="M20.8557 2.67703C20.6191 1.79246 19.9218 1.09509 19.0372 0.858517C17.4326 0.428574 10.9999 0.428574 10.9999 0.428574C10.9999 0.428574 4.56726 0.428574 2.96269 0.858517C2.07812 1.09509 1.38075 1.79246 1.14418 2.67703C0.714233 4.2816 0.714233 8.65714 0.714233 8.65714C0.714233 8.65714 0.714233 13.0327 1.14418 14.6373C1.38075 15.5218 2.07812 16.2192 2.96269 16.4558C4.56726 16.8857 10.9999 16.8857 10.9999 16.8857C10.9999 16.8857 17.4326 16.8857 19.0372 16.4558C19.9228 16.2192 20.6191 15.5218 20.8557 14.6373C21.2857 13.0327 21.2857 8.65714 21.2857 8.65714C21.2857 8.65714 21.2857 4.2816 20.8557 2.67703ZM8.9428 11.3294V5.98492C8.9428 5.58892 9.37172 5.34206 9.71423 5.53954L14.3428 8.21177C14.6853 8.40926 14.6853 8.90503 14.3428 9.10252L9.71423 11.7747C9.37172 11.9733 8.9428 11.7254 8.9428 11.3294Z" fill="currentColor"/>
</svg>
