<svg width="22" height="22" fill="none" xmlns="http://www.w3.org/2000/svg"><path d="M12.984 12.984c-1.617 1.668-1.734 3.747-1.874 8.302 4.247 0 7.178-.015 8.692-1.484 1.47-1.514 1.484-4.585 1.484-8.692-4.555.147-6.635.257-8.302 1.874zM.714 11.11c0 4.107.015 7.178 1.484 8.692 1.514 1.47 4.445 1.484 8.692 1.484-.147-4.555-.257-6.635-1.874-8.302C7.35 11.367 5.27 11.25.714 11.11zM10.89.714c-4.24 0-7.178.015-8.692 1.484C.73 3.712.714 6.783.714 10.89c4.555-.147 6.635-.257 8.302-1.874C10.633 7.35 10.75 5.27 10.89.714zm2.094 8.302C11.367 7.35 11.25 5.27 11.11.714c4.247 0 7.178.015 8.692 1.484 1.47 1.514 1.484 4.585 1.484 8.692-4.555-.147-6.635-.257-8.302-1.874z" fill="#F90"/></svg>