<svg width="48" height="48" fill="none" xmlns="http://www.w3.org/2000/svg"><path d="M16.936 16.79l-.005.003-.004.004.009-.008zm19.908-.374a2.468 2.468 0 00-.46-.35 1.997 1.997 0 00-2.799.823 11.562 11.562 0 01-2.796 3.554A17.428 17.428 0 0022.255 2.26a2 2 0 00-2.983 1.612 14.034 14.034 0 01-4.942 9.885l-.46.375a17.03 17.03 0 00-3.975 3.724 17.967 17.967 0 007.31 27.817 2 2 0 002.655-2.477 13.953 13.953 0 01-.38-5.162 18.007 18.007 0 008.626 8.033c.45.202.96.23 1.43.077a17.99 17.99 0 007.308-29.727zm-7.81 25.662a13.928 13.928 0 01-7.153-8.805 17.835 17.835 0 01-.36-1.927 2 2 0 00-3.714-.725 17.918 17.918 0 00-2.411 9.436 13.97 13.97 0 01-2.351-19.737 13.112 13.112 0 013.124-2.916 1.48 1.48 0 00.148-.109s.594-.49.614-.502a17.935 17.935 0 005.797-9.266 13.472 13.472 0 012.773 16.176 2 2 0 002.367 2.836 15.712 15.712 0 007.725-5.375 14.001 14.001 0 01-6.559 20.914z" fill="#303030"/></svg>