<svg width="128" height="34" fill="none" xmlns="http://www.w3.org/2000/svg"><path fill-rule="evenodd" clip-rule="evenodd" d="M125.354 31.334H30.711V27.51h28.066V6.49H30.71V2.666h94.643v28.668zm0-31.334H28.066v6.489H0V27.51h28.066V34H128V0h-2.646zM35.489 15.953c0-.82-.192-1.492-.575-2.017-.383-.525-.923-.787-1.622-.787-.714 0-1.26.261-1.637.783-.378.523-.567 1.196-.567 2.02v2.08c0 .83.192 1.507.575 2.032.383.525.931.787 1.645.787.693 0 1.23-.262 1.61-.787.38-.525.57-1.202.57-2.032v-2.08zm2.634 2.079c0 1.412-.445 2.576-1.333 3.493-.888.916-2.049 1.374-3.482 1.374-1.443 0-2.613-.458-3.51-1.374-.895-.917-1.343-2.08-1.343-3.493v-2.064c0-1.407.446-2.57 1.34-3.489.893-.918 2.06-1.378 3.497-1.378 1.428 0 2.59.46 3.486 1.378.896.92 1.345 2.082 1.345 3.49v2.063zm-24.63 4.702h2.633V11.266H6.638v11.468H9.28v-9.42h4.213v9.42zm9.133-5.978h-1.704v-3.442h1.704c.578 0 1.017.163 1.317.489.3.325.45.742.45 1.252 0 .499-.152.907-.454 1.224-.302.318-.74.477-1.313.477zm-1.704 5.977v-3.93h1.704c1.35 0 2.42-.345 3.212-1.035.792-.69 1.188-1.6 1.188-2.729s-.396-2.04-1.188-2.733c-.792-.693-1.863-1.04-3.212-1.04h-4.345v11.467h2.641zm25.12-3.441h-.046l-2.548-8.025h-3.463v11.466h2.642v-7.277l.047-.008 2.462 7.285h1.774l2.509-7.395.047.008v7.387h2.642V11.268h-3.494l-2.572 8.025zm45.34-3.402c.62 0 1.08-.127 1.379-.378.3-.253.45-.612.45-1.08 0-.362-.169-.666-.505-.913-.336-.247-.82-.37-1.45-.37-.484 0-.884.112-1.2.335a1.05 1.05 0 00-.472.901H87.02l-.007-.047c-.032-.966.367-1.747 1.195-2.343.829-.596 1.845-.894 3.048-.894 1.412 0 2.53.283 3.353.85.824.568 1.235 1.376 1.235 2.426 0 .525-.167 1.006-.5 1.442-.333.436-.794.777-1.383 1.024.667.225 1.177.564 1.532 1.015.354.452.53 1.006.53 1.662 0 1.056-.44 1.883-1.32 2.481-.88.599-2.03.898-3.447.898-1.203 0-2.247-.28-3.13-.843-.883-.561-1.309-1.38-1.278-2.457l.016-.047h2.571c0 .373.171.682.512.93.342.246.778.37 1.31.37.656 0 1.174-.13 1.555-.39.38-.26.57-.593.57-.997 0-.562-.166-.969-.5-1.22-.333-.253-.833-.379-1.5-.379h-1.595V15.89h1.594zm-23.325 4.796v-2.875h1.79c.567.016.975.15 1.223.402.247.252.37.622.37 1.11 0 .462-.14.805-.421 1.028-.281.223-.704.335-1.266.335h-1.696zm1.04-4.639h-1.04v-2.733h1.086c.625 0 1.09.112 1.391.335.302.223.453.579.453 1.067 0 .441-.156.773-.468.996-.313.223-.787.335-1.423.335zm-3.682-4.78v11.467h4.338c1.39 0 2.459-.287 3.204-.859.745-.572 1.118-1.418 1.118-2.536 0-.604-.163-1.137-.489-1.599-.325-.462-.827-.766-1.504-.913.531-.216.922-.535 1.172-.957.25-.423.375-.907.375-1.453 0-1.045-.394-1.831-1.184-2.359-.79-.528-1.89-.791-3.302-.791h-3.728zm19.841 0h-2.642l-4.166 7.104-.046-.008v-7.096H75.76v11.467h2.642l4.165-7.112.047.008v7.104h2.642V11.266zm21.949 0h-2.642l-4.165 7.104-.047-.008v-7.096h-2.642v11.467h2.642l4.166-7.112.046.008v7.104h2.642V11.266zm8.877 4.686c0-.82-.191-1.492-.574-2.017-.383-.525-.924-.787-1.622-.787-.714 0-1.259.261-1.637.783-.378.523-.567 1.196-.567 2.02v2.08c0 .83.192 1.507.575 2.032.382.525.931.787 1.645.787.693 0 1.23-.262 1.61-.787.38-.525.57-1.202.57-2.032v-2.08zm2.634 2.079c0 1.412-.444 2.576-1.332 3.493-.889.916-2.049 1.374-3.482 1.374-1.444 0-2.613-.458-3.509-1.374-.897-.917-1.345-2.08-1.345-3.493v-2.064c0-1.407.447-2.57 1.341-3.489.893-.918 2.059-1.378 3.497-1.378 1.428 0 2.59.46 3.486 1.378.896.92 1.344 2.082 1.344 3.49v2.063z" fill="#fff"/><path d="M125.354 31.334H30.711V27.51h-2.646V34H128V0H28.065v6.489h2.646V2.666h94.643v28.668z" fill="#F90"/></svg>