<?xml version="1.0" standalone="no"?>
<!DOCTYPE svg PUBLIC "-//W3C//DTD SVG 20010904//EN"
 "http://www.w3.org/TR/2001/REC-SVG-20010904/DTD/svg10.dtd">
<svg version="1.0" xmlns="http://www.w3.org/2000/svg"
 width="700.000000pt" height="700.000000pt" viewBox="0 0 700.000000 700.000000"
 preserveAspectRatio="xMidYMid meet">
<metadata>
Created by potrace 1.14, written by Peter Selinger 2001-2017
</metadata>
<g transform="translate(0.000000,700.000000) scale(0.100000,-0.100000)"
fill="#000000" stroke="none">
<path d="M545 6448 c-3 -7 -4 -1338 -3 -2958 l3 -2945 2955 0 2955 0 0 2955 0
2955 -2953 3 c-2357 2 -2954 0 -2957 -10z m4415 -2948 l0 -1750 -405 0 -405 0
0 1435 0 1435 -650 0 -650 0 0 -1435 0 -1435 -405 0 -405 0 0 1750 0 1750
1460 0 1460 0 0 -1750z"/>
</g>
</svg>
